<svg width="16" height="16" viewBox="0 0 16 16" fill="none" xmlns="http://www.w3.org/2000/svg">
<path d="M14.6664 8.00002C14.6664 4.31814 11.6817 1.33333 7.99988 1.33333C4.31808 1.33333 1.33334 4.31814 1.33334 8.00002C1.33334 11.1264 3.48583 13.7499 6.38951 14.4704V10.0374H5.01487V8.00002H6.38951V7.12215C6.38951 4.85308 7.41642 3.80134 9.64411 3.80134C10.0665 3.80134 10.7953 3.88427 11.0934 3.96694V5.81361C10.9361 5.79708 10.6628 5.78881 10.3233 5.78881C9.23025 5.78881 8.80786 6.20295 8.80786 7.27948V8.00002H10.9854L10.6113 10.0374H8.80786V14.6179C12.1089 14.2192 14.6667 11.4086 14.6667 8.00002H14.6664Z" fill="#0866FF"/>
<path d="M10.611 10.0373L10.9852 7.99998H8.80761V7.27945C8.80761 6.20291 9.23 5.78878 10.323 5.78878C10.6625 5.78878 10.9358 5.79704 11.0932 5.81358V3.9669C10.795 3.88397 10.0663 3.8013 9.64386 3.8013C7.41617 3.8013 6.38926 4.85304 6.38926 7.12211V7.99998H5.01462V10.0373H6.38926V14.4704C6.90498 14.5984 7.44444 14.6667 7.99963 14.6667C8.27295 14.6667 8.54255 14.6499 8.80734 14.6179V10.0373H10.6108H10.611Z" fill="white"/>
</svg>
