<svg width="16" height="16" viewBox="0 0 16 16" fill="none" xmlns="http://www.w3.org/2000/svg">
<path d="M12 1C13.6569 1 15 2.34315 15 4V12C15 13.6569 13.6569 15 12 15H4C2.34315 15 1 13.6569 1 12V4C1 2.34315 2.34315 1 4 1H12ZM5.69336 3.22266C5.03436 3.22269 4.50003 3.75702 4.5 4.41602V11.585C4.5004 12.2437 5.03458 12.7773 5.69336 12.7773C6.35211 12.7773 6.88632 12.2436 6.88672 11.585V9.19727H8.69336C9.35233 9.19717 9.88672 8.6629 9.88672 8.00391C9.88651 7.34509 9.3522 6.81064 8.69336 6.81055H6.88672V5.61719H10.3066C10.9656 5.61714 11.5 5.08284 11.5 4.42383C11.4997 3.76506 10.9655 3.2315 10.3066 3.23145H5.83301C5.78721 3.2261 5.74059 3.22266 5.69336 3.22266ZM5.69336 10.749C6.15464 10.7491 6.52832 11.1237 6.52832 11.585C6.52792 12.0459 6.1544 12.4189 5.69336 12.4189C5.2323 12.4189 4.85782 12.0459 4.85742 11.585C4.85742 11.1236 5.23205 10.7491 5.69336 10.749ZM8.69336 7.16895C9.15448 7.16904 9.52909 7.54281 9.5293 8.00391C9.5293 8.46518 9.15461 8.83974 8.69336 8.83984C8.23208 8.83979 7.8584 8.4652 7.8584 8.00391C7.85861 7.54279 8.2322 7.169 8.69336 7.16895ZM4.85742 5.27539C5.07268 5.48655 5.36801 5.61717 5.69336 5.61719H6.52832V6.81055H5.69336C5.36807 6.81056 5.07267 6.94125 4.85742 7.15234V5.27539ZM10.3066 3.58887C10.7677 3.58892 11.1423 3.96277 11.1426 4.42383C11.1426 4.88513 10.7679 5.25971 10.3066 5.25977C9.84536 5.25971 9.47168 4.88513 9.47168 4.42383C9.47197 3.96277 9.84553 3.58893 10.3066 3.58887Z" fill="black"/>
</svg>
