<svg width="16" height="16" viewBox="0 0 16 16" fill="none" xmlns="http://www.w3.org/2000/svg">
<g clip-path="url(#clip0_154_17147)">
<path d="M2.24243 13.3333H4.36365V8.18182L1.33334 5.90909V12.4242C1.33334 12.9273 1.74092 13.3333 2.24243 13.3333Z" fill="black"/>
<path d="M11.6364 13.3333H13.7576C14.2606 13.3333 14.6667 12.9258 14.6667 12.4242V5.90909L11.6364 8.18182" fill="black"/>
<path d="M11.6364 4.24242V8.18182L14.6667 5.90909V4.69697C14.6667 3.57273 13.3834 2.93182 12.4849 3.60606" fill="black"/>
<path d="M4.36365 8.18182V4.24242L8.00001 6.9697L11.6364 4.24242V8.18182L8.00001 10.9091" fill="black"/>
<path d="M1.33334 4.69697V5.90909L4.36365 8.18182V4.24242L3.51516 3.60606C2.61516 2.93182 1.33334 3.57273 1.33334 4.69697Z" fill="black"/>
</g>
<defs>
<clipPath id="clip0_154_17147">
<rect width="13.3333" height="10" fill="white" transform="translate(1.33334 3.33333)"/>
</clipPath>
</defs>
</svg>
