<svg width="16" height="16" viewBox="0 0 16 16" fill="none" xmlns="http://www.w3.org/2000/svg">
<path d="M8 1.33301C9.79697 1.33301 11.3064 1.99456 12.4609 3.07031L10.5488 4.98242C9.85792 4.32182 8.97879 3.98535 8 3.98535C6.26365 3.98535 4.79379 5.15766 4.26953 6.7334L4.18066 7.03809C4.10312 7.34757 4.06055 7.67049 4.06055 8C4.06057 8.43932 4.13622 8.86666 4.26953 9.2666C4.79377 10.8424 6.26364 12.0146 8 12.0146C8.89697 12.0146 9.66084 11.7789 10.2578 11.3789L10.3867 11.2871C11.0208 10.817 11.443 10.1476 11.5879 9.36621H8V6.78809H14.2783C14.3571 7.22433 14.4004 7.67878 14.4004 8.15137C14.4004 10.1815 13.6726 11.8902 12.4121 13.0508V13.0518C11.3091 14.0699 9.79991 14.667 8 14.667C5.4754 14.667 3.28046 13.2647 2.14844 11.1963L2.04199 10.9941L1.88281 10.6504C1.53111 9.83797 1.33304 8.94114 1.33301 8C1.33301 6.92431 1.59053 5.90582 2.04199 5.00586C3.13898 2.82714 5.39399 1.33301 8 1.33301Z" fill="black"/>
</svg>
