<svg width="16" height="16" viewBox="0 0 16 16" fill="none" xmlns="http://www.w3.org/2000/svg">
<path d="M8 1.375C9.39648 1.375 10.5068 1.37352 11.375 1.49024C12.2612 1.60939 12.9887 1.86171 13.5635 2.43652L13.6675 2.54639C14.1692 3.10313 14.3981 3.79421 14.5098 4.625C14.6265 5.49325 14.625 6.60352 14.625 8C14.625 9.39648 14.6265 10.5068 14.5098 11.375C14.3981 12.2058 14.1692 12.8969 13.6675 13.4536L13.5635 13.5635C12.9887 14.1383 12.2612 14.3906 11.375 14.5098C10.5068 14.6265 9.39648 14.625 8 14.625C6.60352 14.625 5.49325 14.6265 4.625 14.5098C3.79421 14.3981 3.10313 14.1692 2.54639 13.6675L2.43652 13.5635C1.86171 12.9887 1.60939 12.2612 1.49024 11.375C1.37352 10.5068 1.375 9.39648 1.375 8C1.375 6.60352 1.37352 5.49325 1.49024 4.625C1.60939 3.73876 1.8617 3.01134 2.43652 2.43652L2.54639 2.33252C3.10313 1.83081 3.79421 1.60193 4.625 1.49024C5.49325 1.37352 6.60352 1.375 8 1.375ZM8 2.625C6.56813 2.625 5.55712 2.62656 4.79151 2.72949C4.09051 2.82374 3.6781 2.99379 3.37891 3.26514L3.3208 3.3208C3.01694 3.62466 2.83001 4.04387 2.72949 4.79151C2.62656 5.55712 2.625 6.56813 2.625 8C2.625 9.43188 2.62656 10.4429 2.72949 11.2085C2.83001 11.9561 3.01694 12.3753 3.3208 12.6792L3.37891 12.7349C3.6781 13.0062 4.09051 13.1763 4.79151 13.2705C5.55712 13.3734 6.56813 13.375 8 13.375C9.43188 13.375 10.4429 13.3734 11.2085 13.2705C11.9561 13.17 12.3753 12.9831 12.6792 12.6792L12.7349 12.6211C13.0062 12.3219 13.1763 11.9095 13.2705 11.2085C13.3734 10.4429 13.375 9.43188 13.375 8C13.375 6.56813 13.3734 5.55712 13.2705 4.79151C13.1763 4.09051 13.0062 3.6781 12.7349 3.37891L12.6792 3.3208C12.3753 3.01694 11.9561 2.83001 11.2085 2.72949C10.4429 2.62656 9.43188 2.625 8 2.625ZM8 4.625C9.86396 4.625 11.375 6.13604 11.375 8C11.375 9.86396 9.86396 11.375 8 11.375C6.13604 11.375 4.625 9.86396 4.625 8C4.625 6.13604 6.13604 4.625 8 4.625ZM8 5.875C6.8264 5.875 5.875 6.8264 5.875 8C5.875 9.17361 6.8264 10.125 8 10.125C9.17361 10.125 10.125 9.17361 10.125 8C10.125 6.8264 9.17361 5.875 8 5.875ZM11.5498 3.6499C11.9916 3.6499 12.3501 4.00837 12.3501 4.4502C12.35 4.89193 11.9916 5.25 11.5498 5.25C11.1081 5.2499 10.7501 4.89187 10.75 4.4502C10.75 4.00843 11.1081 3.65001 11.5498 3.6499Z" fill="url(#paint0_linear_154_17002)"/>
<path d="M8 1.375C9.39648 1.375 10.5068 1.37352 11.375 1.49024C12.2612 1.60939 12.9887 1.86171 13.5635 2.43652L13.6675 2.54639C14.1692 3.10313 14.3981 3.79421 14.5098 4.625C14.6265 5.49325 14.625 6.60352 14.625 8C14.625 9.39648 14.6265 10.5068 14.5098 11.375C14.3981 12.2058 14.1692 12.8969 13.6675 13.4536L13.5635 13.5635C12.9887 14.1383 12.2612 14.3906 11.375 14.5098C10.5068 14.6265 9.39648 14.625 8 14.625C6.60352 14.625 5.49325 14.6265 4.625 14.5098C3.79421 14.3981 3.10313 14.1692 2.54639 13.6675L2.43652 13.5635C1.86171 12.9887 1.60939 12.2612 1.49024 11.375C1.37352 10.5068 1.375 9.39648 1.375 8C1.375 6.60352 1.37352 5.49325 1.49024 4.625C1.60939 3.73876 1.8617 3.01134 2.43652 2.43652L2.54639 2.33252C3.10313 1.83081 3.79421 1.60193 4.625 1.49024C5.49325 1.37352 6.60352 1.375 8 1.375ZM8 2.625C6.56813 2.625 5.55712 2.62656 4.79151 2.72949C4.09051 2.82374 3.6781 2.99379 3.37891 3.26514L3.3208 3.3208C3.01694 3.62466 2.83001 4.04387 2.72949 4.79151C2.62656 5.55712 2.625 6.56813 2.625 8C2.625 9.43188 2.62656 10.4429 2.72949 11.2085C2.83001 11.9561 3.01694 12.3753 3.3208 12.6792L3.37891 12.7349C3.6781 13.0062 4.09051 13.1763 4.79151 13.2705C5.55712 13.3734 6.56813 13.375 8 13.375C9.43188 13.375 10.4429 13.3734 11.2085 13.2705C11.9561 13.17 12.3753 12.9831 12.6792 12.6792L12.7349 12.6211C13.0062 12.3219 13.1763 11.9095 13.2705 11.2085C13.3734 10.4429 13.375 9.43188 13.375 8C13.375 6.56813 13.3734 5.55712 13.2705 4.79151C13.1763 4.09051 13.0062 3.6781 12.7349 3.37891L12.6792 3.3208C12.3753 3.01694 11.9561 2.83001 11.2085 2.72949C10.4429 2.62656 9.43188 2.625 8 2.625ZM8 4.625C9.86396 4.625 11.375 6.13604 11.375 8C11.375 9.86396 9.86396 11.375 8 11.375C6.13604 11.375 4.625 9.86396 4.625 8C4.625 6.13604 6.13604 4.625 8 4.625ZM8 5.875C6.8264 5.875 5.875 6.8264 5.875 8C5.875 9.17361 6.8264 10.125 8 10.125C9.17361 10.125 10.125 9.17361 10.125 8C10.125 6.8264 9.17361 5.875 8 5.875ZM11.5498 3.6499C11.9916 3.6499 12.3501 4.00837 12.3501 4.4502C12.35 4.89193 11.9916 5.25 11.5498 5.25C11.1081 5.2499 10.7501 4.89187 10.75 4.4502C10.75 4.00843 11.1081 3.65001 11.5498 3.6499Z" fill="url(#paint1_linear_154_17002)"/>
<defs>
<linearGradient id="paint0_linear_154_17002" x1="-1.05417" y1="0.7125" x2="4.84032" y2="9.22298" gradientUnits="userSpaceOnUse">
<stop offset="0.00121768" stop-color="#6521F5"/>
<stop offset="0.293733" stop-color="#1200DD"/>
<stop offset="0.709013" stop-color="#ED1389"/>
</linearGradient>
<linearGradient id="paint1_linear_154_17002" x1="1.83345" y1="14.2681" x2="7.23548" y2="0.661708" gradientUnits="userSpaceOnUse">
<stop stop-color="#FBEC48"/>
<stop offset="0.399" stop-color="#FC3746"/>
<stop offset="0.854" stop-color="#FC2C46" stop-opacity="0"/>
</linearGradient>
</defs>
</svg>
