<svg width="16" height="16" viewBox="0 0 16 16" fill="none" xmlns="http://www.w3.org/2000/svg">
<path d="M13.6667 1.33333H2.33334C2.06813 1.33333 1.81377 1.43869 1.62624 1.62622C1.4387 1.81376 1.33334 2.06811 1.33334 2.33333V13.6667C1.33334 13.9319 1.4387 14.1862 1.62624 14.3738C1.81377 14.5613 2.06813 14.6667 2.33334 14.6667H13.6667C13.9319 14.6667 14.1862 14.5613 14.3738 14.3738C14.5613 14.1862 14.6667 13.9319 14.6667 13.6667V2.33333C14.6667 2.06811 14.5613 1.81376 14.3738 1.62622C14.1862 1.43869 13.9319 1.33333 13.6667 1.33333V1.33333ZM5.33334 12.6667H3.33334V6.66666H5.33334V12.6667ZM4.33334 5.49999C4.10413 5.49344 3.88193 5.41949 3.69451 5.28738C3.50709 5.15527 3.36275 4.97085 3.27954 4.75718C3.19633 4.5435 3.17793 4.31005 3.22664 4.08598C3.27535 3.8619 3.38901 3.65715 3.55342 3.49731C3.71783 3.33747 3.9257 3.22962 4.15105 3.18724C4.37641 3.14486 4.60925 3.16983 4.8205 3.25902C5.03175 3.34822 5.21202 3.49769 5.3388 3.68876C5.46558 3.87983 5.53325 4.10402 5.53334 4.33333C5.52808 4.64689 5.3989 4.94563 5.17404 5.16424C4.94919 5.38285 4.64693 5.50356 4.33334 5.49999V5.49999ZM12.6667 12.6667H10.6667V9.50666C10.6667 8.55999 10.2667 8.21999 9.74668 8.21999C9.59422 8.23014 9.44526 8.27032 9.30837 8.3382C9.17148 8.40608 9.04935 8.50034 8.949 8.61557C8.84865 8.73079 8.77204 8.8647 8.72359 9.00961C8.67514 9.15453 8.6558 9.30758 8.66668 9.45999C8.66337 9.49102 8.66337 9.5223 8.66668 9.55333V12.6667H6.66668V6.66666H8.60001V7.53333C8.79503 7.23666 9.06296 6.99504 9.37814 6.83162C9.69331 6.66819 10.0452 6.58844 10.4 6.59999C11.4333 6.59999 12.64 7.17333 12.64 9.03999L12.6667 12.6667Z" fill="#0A66C2"/>
</svg>
