<svg width="16" height="16" viewBox="0 0 16 16" fill="none" xmlns="http://www.w3.org/2000/svg">
<path d="M13.6667 1.33333H2.33334C2.06813 1.33333 1.81377 1.43869 1.62624 1.62622C1.4387 1.81376 1.33334 2.06811 1.33334 2.33333V13.6667C1.33334 13.9319 1.4387 14.1862 1.62624 14.3738C1.81377 14.5613 2.06813 14.6667 2.33334 14.6667H13.6667C13.9319 14.6667 14.1862 14.5613 14.3738 14.3738C14.5613 14.1862 14.6667 13.9319 14.6667 13.6667V2.33333C14.6667 2.06811 14.5613 1.81376 14.3738 1.62622C14.1862 1.43869 13.9319 1.33333 13.6667 1.33333Z" fill="white"/>
<path d="M3.33335 12.6667H5.33335V6.66667H3.33335V12.6667Z" fill="#0A66C2"/>
<path d="M3.69451 5.28739C3.88194 5.4195 4.10413 5.49345 4.33335 5.5C4.64694 5.50357 4.94919 5.38286 5.17405 5.16425C5.3989 4.94564 5.52808 4.6469 5.53335 4.33334C5.53325 4.10403 5.46559 3.87984 5.33881 3.68877C5.21202 3.4977 5.03175 3.34823 4.8205 3.25903C4.60926 3.16983 4.37641 3.14486 4.15106 3.18724C3.9257 3.22962 3.71783 3.33747 3.55342 3.49732C3.38901 3.65716 3.27535 3.86191 3.22664 4.08598C3.17793 4.31005 3.19633 4.54351 3.27954 4.75719C3.36276 4.97086 3.50709 5.15527 3.69451 5.28739Z" fill="#0A66C2"/>
<path d="M10.6667 12.6667H12.6667L12.64 9.04C12.64 7.17334 11.4333 6.6 10.4 6.6C10.0452 6.58845 9.69331 6.6682 9.37814 6.83163C9.06296 6.99505 8.79503 7.23667 8.60001 7.53334V6.66667H6.66668V12.6667H8.66668V9.55334C8.66337 9.52231 8.66337 9.49103 8.66668 9.46C8.6558 9.30759 8.67515 9.15454 8.7236 9.00962C8.77205 8.86471 8.84865 8.7308 8.949 8.61557C9.04936 8.50035 9.17149 8.40609 9.30838 8.33821C9.44527 8.27032 9.59422 8.23015 9.74668 8.22C10.2667 8.22 10.6667 8.56 10.6667 9.50667V12.6667Z" fill="#0A66C2"/>
</svg>
