<svg width="16" height="16" viewBox="0 0 16 16" fill="none" xmlns="http://www.w3.org/2000/svg">
<path d="M6.67253 6.55723V6.02719C6.49063 6.00233 6.30601 5.987 6.11763 5.987C3.84728 5.987 2 7.83428 2 10.105C2 11.4982 2.69592 12.731 3.75803 13.4763C3.07267 12.7405 2.65232 11.755 2.65232 10.6725C2.65232 8.43448 4.44714 6.60934 6.67287 6.55723H6.67253Z" fill="#25F4EE"/>
<path d="M6.76963 12.5531C7.78268 12.5531 8.60907 11.7472 8.64654 10.7433L8.65029 1.77774H10.2881C10.254 1.59346 10.2353 1.40406 10.2353 1.2099H7.99831L7.99456 10.1755C7.95709 11.1794 7.1307 11.9853 6.11764 11.9853C5.80289 11.9853 5.5062 11.9066 5.24527 11.7693C5.58693 12.2432 6.14217 12.5531 6.76963 12.5531Z" fill="#25F4EE"/>
<path d="M13.3477 4.82064V4.32229C12.7229 4.32229 12.1408 4.13664 11.6526 3.81815C12.0873 4.31718 12.6776 4.67724 13.3477 4.82064Z" fill="#25F4EE"/>
<path d="M11.653 3.81817C11.1768 3.27144 10.8876 2.55781 10.8876 1.7774H10.2884C10.4461 2.62968 10.952 3.36103 11.653 3.81817Z" fill="#FE2C55"/>
<path d="M6.11763 8.22431C5.08073 8.22431 4.23697 9.06807 4.23697 10.105C4.23697 10.8271 4.64676 11.4546 5.24526 11.7693C5.02214 11.46 4.88929 11.0819 4.88929 10.6725C4.88929 9.63558 5.73305 8.79182 6.76995 8.79182C6.96344 8.79182 7.14908 8.82384 7.32485 8.87868V6.5947C7.14295 6.56983 6.95833 6.5545 6.76995 6.5545C6.73725 6.5545 6.70523 6.55621 6.67287 6.55689V8.31084C6.4971 8.25599 6.31146 8.22397 6.11797 8.22397L6.11763 8.22431Z" fill="#FE2C55"/>
<path d="M13.3477 4.82065V6.55927C12.1878 6.55927 11.1127 6.18831 10.2353 5.55847V10.105C10.2353 12.3757 8.38798 14.2226 6.11763 14.2226C5.24015 14.2226 4.4267 13.946 3.75769 13.4763C4.50982 14.2839 5.58147 14.7901 6.76961 14.7901C9.04031 14.7901 10.8872 12.9428 10.8872 10.6725V6.12631C11.7647 6.75615 12.8398 7.12711 13.9997 7.12711V4.8898C13.7759 4.8898 13.5579 4.86561 13.3477 4.82065Z" fill="#FE2C55"/>
<path d="M10.2353 10.105V5.55849C11.1127 6.18833 12.1878 6.55928 13.3477 6.55928V4.82067C12.6776 4.67726 12.0873 4.31754 11.6527 3.81817C10.9516 3.36103 10.4458 2.63002 10.2881 1.7774H8.65027L8.64653 10.743C8.60906 11.7469 7.78267 12.5528 6.76961 12.5528C6.14216 12.5528 5.58692 12.2428 5.24526 11.769C4.64675 11.4539 4.23697 10.8265 4.23697 10.1046C4.23697 9.06774 5.08073 8.22398 6.11763 8.22398C6.31111 8.22398 6.49676 8.256 6.67253 8.31084V6.5569C4.4468 6.60902 2.65198 8.43416 2.65198 10.6721C2.65198 11.7547 3.07232 12.7402 3.75769 13.4759C4.42636 13.9453 5.24015 14.2223 6.11763 14.2223C8.38798 14.2223 10.2353 12.375 10.2353 10.1046V10.105Z" fill="white"/>
</svg>
