<svg width="16" height="16" viewBox="0 0 16 16" fill="none" xmlns="http://www.w3.org/2000/svg">
<path d="M11.25 7.75C11.9574 8.92444 12.7917 10.5497 13.3543 11.6796C13.6688 12.3112 13.2374 13.0502 12.5329 13.0897C11.256 13.1614 9.39596 13.25 8 13.25C6.60404 13.25 4.74404 13.1614 3.46706 13.0897C2.76259 13.0502 2.33116 12.3112 2.64567 11.6796C3.20829 10.5497 4.04258 8.92444 4.75 7.75C5.45152 6.58536 6.49354 5.09165 7.20742 4.09313C7.59827 3.54644 8.40173 3.54644 8.79258 4.09313C9.50646 5.09165 10.5485 6.58536 11.25 7.75Z" fill="#003784" fill-opacity="0.25" stroke="#003784" stroke-linecap="round" stroke-linejoin="round"/>
<path d="M8 9V11.4873" stroke="#003784" stroke-linecap="round" stroke-linejoin="round"/>
<path d="M7.99667 6.875H8.00333Z" fill="#003784"/>
<path d="M7.99667 6.875H8.00333" stroke="#003784" stroke-linecap="round" stroke-linejoin="round"/>
</svg>
