<svg width="16" height="16" viewBox="0 0 16 16" fill="none" xmlns="http://www.w3.org/2000/svg">
<path d="M2.17 4.66667L4.48311 2.35355C4.67837 2.15829 4.99496 2.15829 5.19022 2.35355L7.50333 4.66667" stroke="#003784" stroke-linecap="round" stroke-linejoin="round"/>
<path d="M4.83675 2.66663L4.83675 13.6666" stroke="#003784" stroke-linecap="round" stroke-linejoin="round"/>
<path opacity="0.7" d="M13.3333 11.8368H10" stroke="#003784" stroke-linecap="round" stroke-linejoin="round"/>
<path opacity="0.7" d="M10 13.17V10.8367C10 10.3947 10.1756 9.97073 10.4882 9.65817C10.8007 9.34561 11.2246 9.17001 11.6667 9.17001C12.1087 9.17001 12.5326 9.34561 12.8452 9.65817C13.1577 9.97073 13.3333 10.3947 13.3333 10.8367V13.17" stroke="#003784" stroke-linecap="round" stroke-linejoin="round"/>
<path d="M10 2.82999H12.9063C13.0759 2.82999 13.1685 3.02776 13.06 3.15802L10.2734 6.50195C10.1648 6.63222 10.2574 6.82999 10.427 6.82999H13.3333" stroke="#003784" stroke-linecap="round" stroke-linejoin="round"/>
</svg>
