<svg width="16" height="16" viewBox="0 0 16 16" fill="none" xmlns="http://www.w3.org/2000/svg">
<path d="M2.17 4.66667L4.48311 2.35355C4.67837 2.15829 4.99496 2.15829 5.19022 2.35355L7.50333 4.66667" stroke="black" stroke-linecap="round" stroke-linejoin="round"/>
<path d="M4.83675 2.6665L4.83675 13.6665" stroke="black" stroke-linecap="round" stroke-linejoin="round"/>
<path d="M13.5 8.61818C13.5 9.94371 12.3348 12.0358 11.5213 13.3348C11.1574 13.9159 10.3426 13.9159 9.97867 13.3348C9.1652 12.0358 8 9.94371 8 8.61818C8 7.9238 8.28973 7.25785 8.80546 6.76685C9.32118 6.27584 10.0207 6 10.75 6C11.4793 6 12.1788 6.27584 12.6945 6.76685C13.2103 7.25785 13.5 7.9238 13.5 8.61818Z" fill="black" stroke="black" stroke-linecap="round" stroke-linejoin="round"/>
<path d="M10.75 9.25C11.0261 9.25 11.25 9.02614 11.25 8.75C11.25 8.47386 11.0261 8.25 10.75 8.25C10.4739 8.25 10.25 8.47386 10.25 8.75C10.25 9.02614 10.4739 9.25 10.75 9.25Z" stroke="white" stroke-linecap="round" stroke-linejoin="round"/>
</svg>
