<svg width="16" height="16" viewBox="0 0 16 16" fill="none" xmlns="http://www.w3.org/2000/svg">
<path d="M2.17 4.66667L4.48311 2.35355C4.67837 2.15829 4.99496 2.15829 5.19022 2.35355L7.50333 4.66667" stroke="black" stroke-linecap="round" stroke-linejoin="round"/>
<path d="M4.83675 2.66663L4.83675 13.6666" stroke="black" stroke-linecap="round" stroke-linejoin="round"/>
<path d="M13.3333 11.8367H10" stroke="black" stroke-linecap="round" stroke-linejoin="round"/>
<path d="M10 13.17V10.8366C10 10.3946 10.1756 9.9707 10.4882 9.65814C10.8007 9.34558 11.2246 9.16998 11.6667 9.16998C12.1087 9.16998 12.5326 9.34558 12.8452 9.65814C13.1577 9.9707 13.3333 10.3946 13.3333 10.8366V13.17" stroke="black" stroke-linecap="round" stroke-linejoin="round"/>
<path d="M10 2.83002H12.9063C13.0759 2.83002 13.1685 3.02779 13.06 3.15805L10.2734 6.50198C10.1648 6.63225 10.2574 6.83002 10.427 6.83002H13.3333" stroke="black" stroke-linecap="round" stroke-linejoin="round"/>
</svg>
