<svg width="16" height="16" viewBox="0 0 16 16" fill="none" xmlns="http://www.w3.org/2000/svg">
<path d="M7.66675 11L5.35364 13.3131C5.15837 13.5083 4.84179 13.5083 4.64653 13.3131L2.33341 11" stroke="black" stroke-linecap="round" stroke-linejoin="round"/>
<path d="M5 13L5 2" stroke="black" stroke-linecap="round" stroke-linejoin="round"/>
<path d="M11 2.5H12M13 2.5H12M12 2.5V6.5M12 6.5H13M12 6.5H11" stroke="black" stroke-linecap="round" stroke-linejoin="round"/>
<path d="M13.5 9.5H12C10.8954 9.5 10 10.3954 10 11.5C10 12.6046 10.8954 13.5 12 13.5H12.5C13.0523 13.5 13.5 13.0523 13.5 12.5C13.5 11.9477 13.0523 11.5 12.5 11.5" stroke="black" stroke-linecap="round" stroke-linejoin="round"/>
</svg>
