<svg width="16" height="16" viewBox="0 0 16 16" fill="none" xmlns="http://www.w3.org/2000/svg">
<path d="M7.66675 10.9998L5.35364 13.313C5.15837 13.5082 4.84179 13.5082 4.64653 13.313L2.33341 10.9998" stroke="black" stroke-linecap="round" stroke-linejoin="round"/>
<path d="M5 13L5 2" stroke="black" stroke-linecap="round" stroke-linejoin="round"/>
<path d="M13.5 4.61818C13.5 5.94371 12.3348 8.03577 11.5213 9.3348C11.1574 9.91595 10.3426 9.91595 9.97867 9.3348C9.1652 8.03577 8 5.94371 8 4.61818C8 3.9238 8.28973 3.25785 8.80546 2.76685C9.32118 2.27584 10.0207 2 10.75 2C11.4793 2 12.1788 2.27584 12.6945 2.76685C13.2103 3.25785 13.5 3.9238 13.5 4.61818Z" stroke="black" stroke-linecap="round" stroke-linejoin="round"/>
<path d="M10.75 5.25C11.0261 5.25 11.25 5.02614 11.25 4.75C11.25 4.47386 11.0261 4.25 10.75 4.25C10.4739 4.25 10.25 4.47386 10.25 4.75C10.25 5.02614 10.4739 5.25 10.75 5.25Z" stroke="black" stroke-linecap="round" stroke-linejoin="round"/>
</svg>
