<svg width="16" height="16" viewBox="0 0 16 16" fill="none" xmlns="http://www.w3.org/2000/svg">
<path d="M4.23624 7.99999H9.23624C9.94349 7.99999 10.6218 8.28094 11.1219 8.78104C11.622 9.28114 11.9029 9.95941 11.9029 10.6667C11.9029 11.3739 11.622 12.0522 11.1219 12.5523C10.6218 13.0524 9.94349 13.3333 9.23624 13.3333H4.90291C4.7261 13.3333 4.55653 13.2631 4.43151 13.1381C4.30648 13.013 4.23624 12.8435 4.23624 12.6667V7.99999ZM4.23624 7.99999V3.33332C4.23624 3.15651 4.30648 2.98694 4.43151 2.86192C4.55653 2.73689 4.7261 2.66666 4.90291 2.66666H8.56958C9.27682 2.66666 9.9551 2.94761 10.4552 3.4477C10.9553 3.9478 11.2362 4.62608 11.2362 5.33332C11.2362 6.04057 10.9553 6.71884 10.4552 7.21894C9.9551 7.71904 9.27682 7.99999 8.56958 7.99999" stroke="#003784" stroke-linecap="round" stroke-linejoin="round"/>
</svg>
