<svg width="16" height="16" viewBox="0 0 16 16" fill="none" xmlns="http://www.w3.org/2000/svg">
<path d="M7.71214 13.5H4.35061C3.86539 13.5 3.51774 13.3925 3.30764 13.1774C3.10255 12.9573 3 12.6096 3 12.1344V3.86562C3 3.3804 3.10505 3.03274 3.31514 2.82265C3.53024 2.60755 3.8754 2.5 4.35061 2.5H7.91473C8.43997 2.5 8.89518 2.53251 9.28035 2.59754C9.66553 2.66257 10.0107 2.78763 10.3158 2.97271C10.5759 3.12779 10.806 3.32538 11.0061 3.56548C11.2062 3.80059 11.3588 4.06321 11.4638 4.35334C11.5689 4.63847 11.6214 4.94111 11.6214 5.26126C11.6214 6.36176 11.0712 7.16712 9.97067 7.67735C11.4163 8.13756 12.1392 9.03297 12.1392 10.3636C12.1392 10.9789 11.9816 11.5341 11.6664 12.0293C11.3513 12.5196 10.9261 12.8822 10.3909 13.1173C10.0557 13.2574 9.67053 13.3574 9.23533 13.4175C8.80014 13.4725 8.29241 13.5 7.71214 13.5ZM7.54707 8.61528H5.22851V11.8267H7.6221C9.12779 11.8267 9.88063 11.284 9.88063 10.1985C9.88063 9.64325 9.68554 9.24056 9.29536 8.99045C8.90518 8.74034 8.32242 8.61528 7.54707 8.61528ZM5.22851 4.17326V7.01705H7.26944C7.82469 7.01705 8.25239 6.96453 8.55252 6.85948C8.85766 6.75443 9.09027 6.55434 9.25034 6.25921C9.3754 6.04911 9.43793 5.81401 9.43793 5.55389C9.43793 4.99864 9.24034 4.63097 8.84516 4.45089C8.44998 4.2658 7.8472 4.17326 7.03684 4.17326H5.22851Z" fill="#003784"/>
</svg>
