<svg width="16" height="16" viewBox="0 0 16 16" fill="none" xmlns="http://www.w3.org/2000/svg">
<path d="M3 9C3 8.41659 3.20131 7.88112 3.53647 7.45595C3.58187 7.39836 3.59537 7.32176 3.57422 7.25155C3.52637 7.09266 3.5 6.92447 3.5 6.75C3.5 5.92672 4.06862 5.23748 4.8345 5.05116C4.96179 5.02019 5.04583 4.88788 5.02288 4.7589C5.00793 4.67483 5 4.58836 5 4.5C5 3.67157 5.67157 3 6.5 3C7.32843 3 8 3.67157 8 4.5L8 11C8 12.3807 7.10457 13.5 6 13.5C4.89543 13.5 4 12.3807 4 11C4 10.9982 3.99913 10.9964 3.99766 10.9953C3.39261 10.539 3 9.81618 3 9Z" fill="#003784" fill-opacity="0.25" stroke="#003784" stroke-linecap="round"/>
<path d="M3.38797 7.6617C3.14228 8.04863 3 8.50767 3 8.99995C3 10.1319 3.75235 11.0882 4.78429 11.396" stroke="#003784" stroke-linecap="round"/>
<path d="M8 7C8 8 7.3 8.5 6.5 8.5" stroke="#003784" stroke-linecap="round"/>
<path d="M13 9C13 8.41659 12.7987 7.88112 12.4635 7.45595C12.4181 7.39836 12.4046 7.32176 12.4258 7.25155C12.4736 7.09266 12.5 6.92447 12.5 6.75C12.5 5.92672 11.9314 5.23748 11.1655 5.05116C11.0382 5.0202 10.9542 4.88788 10.9771 4.7589C10.9921 4.67483 11 4.58836 11 4.5C11 3.67157 10.3284 3 9.5 3C8.67157 3 8 3.67157 8 4.5L8 11C8 12.3807 8.89543 13.5 10 13.5C11.1046 13.5 12 12.3807 12 11C12 10.9982 12.0009 10.9964 12.0023 10.9953C12.6074 10.539 13 9.81618 13 9Z" fill="#003784" fill-opacity="0.25" stroke="#003784" stroke-linecap="round"/>
<path d="M12.612 7.6617C12.8577 8.04863 13 8.50767 13 8.99995C13 10.1319 12.2477 11.0882 11.2157 11.396" stroke="#003784" stroke-linecap="round"/>
<path d="M8 7C8 8 8.7 8.5 9.5 8.5" stroke="#003784" stroke-linecap="round"/>
</svg>
