<svg width="16" height="16" viewBox="0 0 16 16" fill="none" xmlns="http://www.w3.org/2000/svg">
<path d="M11.584 11C10.8124 12.7659 9.05032 14 7 14C4.23858 14 2 11.7614 2 8.99997C2 6.94965 3.2341 5.18757 5 4.41602" stroke="black" stroke-linecap="round"/>
<path d="M7 2.19775C7 2.08729 7.09008 1.99746 7.20049 2.00057C10.9072 2.10482 13.8929 5.09058 13.9972 8.79726C14.0003 8.90767 13.9105 8.99775 13.8 8.99775H7.2C7.08954 8.99775 7 8.90821 7 8.79775V2.19775Z" fill="black"/>
<path d="M13.9972 8.79726L14.497 8.7832L13.9972 8.79726ZM7.20049 2.00057L7.18644 2.50037C10.628 2.59716 13.4006 5.36976 13.4974 8.81131L13.9972 8.79726L14.497 8.7832C14.3853 4.81141 11.1863 1.61247 7.21455 1.50076L7.20049 2.00057ZM13.8 8.99775V8.49775H7.2V8.99775V9.49775H13.8V8.99775ZM7 8.79775H7.5V2.19775H7H6.5V8.79775H7ZM7.2 8.99775V8.49775C7.36569 8.49775 7.5 8.63206 7.5 8.79775H7H6.5C6.5 9.18435 6.8134 9.49775 7.2 9.49775V8.99775ZM13.9972 8.79726L13.4974 8.81131C13.4924 8.63267 13.6364 8.49775 13.8 8.49775V8.99775V9.49775C14.1845 9.49775 14.5082 9.18267 14.497 8.7832L13.9972 8.79726ZM7.20049 2.00057L7.21455 1.50076C6.81508 1.48953 6.5 1.81323 6.5 2.19775H7H7.5C7.5 2.36136 7.36508 2.50539 7.18644 2.50037L7.20049 2.00057Z" fill="black"/>
</svg>
