<svg width="16" height="16" viewBox="0 0 16 16" fill="none" xmlns="http://www.w3.org/2000/svg">
<path d="M11.584 11C10.8124 12.7659 9.05032 14 7 14C4.23858 14 2 11.7614 2 8.99997C2 6.94965 3.2341 5.18757 5 4.41602" stroke="black" stroke-linecap="round"/>
<path d="M13.9972 8.79706L14.497 8.78301L13.9972 8.79706ZM7.20049 2.00037L7.18644 2.50018C10.628 2.59697 13.4006 5.36957 13.4974 8.81112L13.9972 8.79706L14.497 8.78301C14.3853 4.81122 11.1863 1.61228 7.21455 1.50057L7.20049 2.00037ZM13.8 8.99756V8.49756H7.2V8.99756V9.49756H13.8V8.99756ZM7 8.79756H7.5V2.19756H7H6.5V8.79756H7ZM7.2 8.99756V8.49756C7.36569 8.49756 7.5 8.63187 7.5 8.79756H7H6.5C6.5 9.18416 6.8134 9.49756 7.2 9.49756V8.99756ZM13.9972 8.79706L13.4974 8.81112C13.4924 8.63248 13.6364 8.49756 13.8 8.49756V8.99756V9.49756C14.1845 9.49756 14.5082 9.18248 14.497 8.78301L13.9972 8.79706ZM7.20049 2.00037L7.21455 1.50057C6.81508 1.48934 6.5 1.81304 6.5 2.19756H7H7.5C7.5 2.36117 7.36508 2.5052 7.18644 2.50018L7.20049 2.00037Z" fill="black"/>
</svg>
