<svg width="16" height="16" viewBox="0 0 16 16" fill="none" xmlns="http://www.w3.org/2000/svg">
<path d="M2 2.5V12C2 13.1046 2.89543 14 4 14H13.5" stroke="black" stroke-linecap="round"/>
<path d="M5 9.5C5 9.22386 5.22386 9 5.5 9H7V11.5H5.5C5.22386 11.5 5 11.2761 5 11V9.5Z" fill="black"/>
<path d="M5 4.5C5 4.22386 5.22386 4 5.5 4H10V6.5H5.5C5.22386 6.5 5 6.27614 5 6V4.5Z" fill="black"/>
<rect x="5" y="9" width="5" height="2.5" rx="0.5" stroke="black" stroke-linecap="round"/>
<rect x="5" y="4" width="8" height="2.5" rx="0.5" stroke="black" stroke-linecap="round"/>
<path d="M7 9V11.5" stroke="black" stroke-linecap="round"/>
<path d="M10 4V6.5" stroke="black" stroke-linecap="round"/>
</svg>
