<svg width="16" height="16" viewBox="0 0 16 16" fill="none" xmlns="http://www.w3.org/2000/svg">
<path d="M1.8953 2.70501C1.95365 2.28173 2.28173 1.95365 2.70501 1.8953C3.76842 1.7487 5.88421 1.5 8 1.5C10.1158 1.5 12.2316 1.7487 13.295 1.8953C13.7183 1.95365 14.0463 2.28173 14.1047 2.70501C14.2513 3.76842 14.5 5.88421 14.5 8C14.5 10.1158 14.2513 12.2316 14.1047 13.295C14.0463 13.7183 13.7183 14.0463 13.295 14.1047C12.2316 14.2513 10.1158 14.5 8 14.5C5.88421 14.5 3.76842 14.2513 2.70501 14.1047C2.28173 14.0463 1.95365 13.7183 1.8953 13.295C1.7487 12.2316 1.5 10.1158 1.5 8C1.5 5.88421 1.7487 3.76842 1.8953 2.70501Z" fill="#003784" fill-opacity="0.25" stroke="#003784" stroke-linecap="round" stroke-linejoin="round"/>
<path d="M10.6719 5.76563L7.51604 10.1049C7.33533 10.3534 6.97537 10.3816 6.75812 10.1644L5.42188 8.82812" stroke="#003784" stroke-linecap="round" stroke-linejoin="round"/>
</svg>
