<svg width="16" height="16" viewBox="0 0 16 16" fill="none" xmlns="http://www.w3.org/2000/svg">
<path d="M5.19238 5.19238C5.06695 5.60615 5 6.04527 5 6.5C5 8.98528 7.01472 11 9.5 11C9.9545 11 10.3931 10.932 10.8066 10.8066C10.2467 12.6546 8.53078 14 6.5 14C4.01472 14 2 11.9853 2 9.5C2 7.46945 3.34475 5.75251 5.19238 5.19238ZM9.5 2C11.9853 2 14 4.01472 14 6.5C14 8.53078 12.6546 10.2467 10.8066 10.8066C10.932 10.3931 11 9.9545 11 9.5C11 7.01472 8.98528 5 6.5 5C6.04527 5 5.60615 5.06695 5.19238 5.19238C5.75251 3.34475 7.46945 2 9.5 2Z" fill="black"/>
<circle cx="9.5" cy="6.5" r="4.5" stroke="black" stroke-linecap="round" stroke-linejoin="round"/>
<circle cx="6.5" cy="9.5" r="4.5" stroke="black" stroke-linecap="round" stroke-linejoin="round"/>
<path d="M5.5 8L8 5.5" stroke="black" stroke-linecap="round"/>
<path d="M8 10.5L10.5 8" stroke="black" stroke-linecap="round"/>
<path d="M6.5 9.5L9.5 6.5" stroke="black" stroke-linecap="round"/>
</svg>
