<svg width="16" height="16" viewBox="0 0 16 16" fill="none" xmlns="http://www.w3.org/2000/svg">
<path d="M12 2.66602C12.3536 2.66602 12.6933 2.80659 12.9434 3.05664C13.1934 3.30669 13.333 3.64639 13.333 4V13.333C13.333 13.6866 13.1934 14.0263 12.9434 14.2764C12.6933 14.5264 12.3536 14.667 12 14.667H4C3.64659 14.667 3.3076 14.5262 3.05762 14.2764C2.80757 14.0263 2.66699 13.6866 2.66699 13.333V4C2.66699 3.64638 2.80757 3.30669 3.05762 3.05664C3.3076 2.80684 3.64659 2.66605 4 2.66602H5.33301V3.33301C5.33301 3.7012 5.63181 4 6 4H10C10.3681 3.99993 10.667 3.70116 10.667 3.33301V2.66602H12Z" fill="#003784" fill-opacity="0.25"/>
<path d="M9.99987 1.3335H5.99987C5.63168 1.3335 5.33321 1.63197 5.33321 2.00016V3.3335C5.33321 3.70169 5.63168 4.00016 5.99987 4.00016H9.99987C10.3681 4.00016 10.6665 3.70169 10.6665 3.3335V2.00016C10.6665 1.63197 10.3681 1.3335 9.99987 1.3335Z" stroke="#003784" stroke-linecap="round" stroke-linejoin="round"/>
<path d="M10.6668 2.6665H12.0001C12.3537 2.6665 12.6929 2.80698 12.9429 3.05703C13.193 3.30708 13.3335 3.64622 13.3335 3.99984V13.3332C13.3335 13.6868 13.193 14.0259 12.9429 14.276C12.6929 14.526 12.3537 14.6665 12.0001 14.6665H4.00013C3.64651 14.6665 3.30737 14.526 3.05732 14.276C2.80727 14.0259 2.66679 13.6868 2.66679 13.3332V3.99984C2.66679 3.64622 2.80727 3.30708 3.05732 3.05703C3.30737 2.80698 3.64651 2.6665 4.00013 2.6665H5.33346" stroke="#003784" stroke-linecap="round" stroke-linejoin="round"/>
<path d="M8 7.3335H10.6667" stroke="#003784" stroke-linecap="round" stroke-linejoin="round"/>
<path d="M8 10.6665H10.6667" stroke="#003784" stroke-linecap="round" stroke-linejoin="round"/>
<path d="M5.33321 7.3335H5.34029" stroke="#003784" stroke-linecap="round" stroke-linejoin="round"/>
<path d="M5.33321 10.6665H5.34029" stroke="#003784" stroke-linecap="round" stroke-linejoin="round"/>
</svg>
