<svg width="16" height="16" viewBox="0 0 16 16" fill="none" xmlns="http://www.w3.org/2000/svg">
<path d="M9.99987 1.3335H5.99987C5.63168 1.3335 5.3332 1.63197 5.3332 2.00016V3.3335C5.3332 3.70169 5.63168 4.00016 5.99987 4.00016H9.99987C10.3681 4.00016 10.6665 3.70169 10.6665 3.3335V2.00016C10.6665 1.63197 10.3681 1.3335 9.99987 1.3335Z" stroke="black" stroke-linecap="round" stroke-linejoin="round"/>
<path d="M10.6668 2.6665H12.0001C12.3538 2.6665 12.6929 2.80698 12.9429 3.05703C13.193 3.30708 13.3335 3.64622 13.3335 3.99984V13.3332C13.3335 13.6868 13.193 14.0259 12.9429 14.276C12.6929 14.526 12.3538 14.6665 12.0001 14.6665H4.00013C3.64651 14.6665 3.30737 14.526 3.05732 14.276C2.80727 14.0259 2.6668 13.6868 2.6668 13.3332V3.99984C2.6668 3.64622 2.80727 3.30708 3.05732 3.05703C3.30737 2.80698 3.64651 2.6665 4.00013 2.6665H5.33346" stroke="black" stroke-linecap="round" stroke-linejoin="round"/>
<path d="M8 7.3335H10.6667" stroke="black" stroke-linecap="round" stroke-linejoin="round"/>
<path d="M8 10.6665H10.6667" stroke="black" stroke-linecap="round" stroke-linejoin="round"/>
<path d="M5.3332 7.3335H5.34029" stroke="black" stroke-linecap="round" stroke-linejoin="round"/>
<path d="M5.3332 10.6665H5.34029" stroke="black" stroke-linecap="round" stroke-linejoin="round"/>
</svg>
