<svg width="16" height="16" viewBox="0 0 16 16" fill="none" xmlns="http://www.w3.org/2000/svg">
<path d="M2.5 5.25186C2.5 4.52694 3.01792 3.90771 3.73643 3.81151C4.79477 3.66981 6.39738 3.5 8 3.5C9.60262 3.5 11.2052 3.66981 12.2636 3.81151C12.9821 3.90771 13.5 4.52694 13.5 5.25186V10.7481C13.5 11.4731 12.9821 12.0923 12.2636 12.1885C11.2052 12.3302 9.60262 12.5 8 12.5C6.39738 12.5 4.79477 12.3302 3.73643 12.1885C3.01792 12.0923 2.5 11.4731 2.5 10.7481V5.25186Z" fill="#003784" fill-opacity="0.25" stroke="#003784" stroke-linecap="round" stroke-linejoin="round"/>
<path d="M7 5.9998C7 5.9998 5 5.4996 5 7.9998C5 10.5 7 9.9998 7 9.9998" stroke="#003784" stroke-linecap="round" stroke-linejoin="round"/>
<path d="M11 5.9998C11 5.9998 9 5.4996 9 7.9998C9 10.5 11 9.9998 11 9.9998" stroke="#003784" stroke-linecap="round" stroke-linejoin="round"/>
</svg>
