<svg width="16" height="16" viewBox="0 0 16 16" fill="none" xmlns="http://www.w3.org/2000/svg">
<path d="M2.5 5.66915C2.5 4.70258 3.1911 3.87634 4.15044 3.75834C5.18882 3.63062 6.59441 3.5 8 3.5C9.40559 3.5 10.8112 3.63062 11.8496 3.75834C12.8089 3.87634 13.5 4.70258 13.5 5.66915V10.3308C13.5 11.2974 12.8089 12.1237 11.8496 12.2417C10.8112 12.3694 9.40559 12.5 8 12.5C6.59441 12.5 5.18882 12.3694 4.15044 12.2417C3.1911 12.1237 2.5 11.2974 2.5 10.3308V5.66915Z" stroke="black" stroke-linecap="round" stroke-linejoin="round"/>
<path d="M7 5.9998C7 5.9998 5 5.4996 5 7.9998C5 10.5 7 9.9998 7 9.9998" stroke="black" stroke-linecap="round"/>
<path d="M11 5.9998C11 5.9998 9 5.4996 9 7.9998C9 10.5 11 9.9998 11 9.9998" stroke="black" stroke-linecap="round"/>
</svg>
