<svg width="16" height="16" viewBox="0 0 16 16" fill="none" xmlns="http://www.w3.org/2000/svg">
<path fill-rule="evenodd" clip-rule="evenodd" d="M12.3407 10.5061C12.1369 10.8544 12.0671 11.2755 12.2175 11.6498L12.6439 12.711C12.6717 12.7859 12.672 12.8682 12.6448 12.9434C12.6176 13.0185 12.5647 13.0816 12.4954 13.1214L10.1816 14.4558C10.1122 14.4947 10.0313 14.508 9.95316 14.4931C9.87498 14.4783 9.80455 14.4363 9.75428 14.3747L8.82164 13.1838C8.77004 13.1184 8.70302 13.0669 8.6266 13.0338C8.55017 13.0007 8.46673 12.9871 8.38375 12.9941C8.12457 13.0148 7.86419 13.0157 7.60487 12.9969C7.52329 12.9911 7.44154 13.0055 7.36683 13.0387C7.29212 13.072 7.22674 13.1232 7.17648 13.1877L6.24607 14.3786C6.19459 14.4401 6.12333 14.4819 6.04448 14.4967C5.96562 14.5115 5.88407 14.4985 5.81375 14.4599L3.49876 13.1233C3.43112 13.0827 3.37933 13.0202 3.35194 12.9462C3.32454 12.8722 3.32317 12.7911 3.34805 12.7162L3.91337 11.3171C3.9441 11.2402 3.95538 11.157 3.9462 11.0748C3.93702 10.9926 3.90766 10.9139 3.86074 10.8457C3.71476 10.6312 3.58622 10.4053 3.47636 10.1702C3.44108 10.0951 3.38767 10.03 3.32095 9.98073C3.25423 9.93144 3.17629 9.89952 3.09416 9.88785L1.59694 9.67548C1.51841 9.66283 1.44686 9.62286 1.39489 9.56263C1.34293 9.5024 1.31389 9.42576 1.31289 9.34622L1.31165 6.67526C1.31139 6.59533 1.33951 6.51791 1.391 6.45677C1.44248 6.39564 1.51399 6.35476 1.5928 6.34142L3.09563 6.12655C3.17825 6.11429 3.2565 6.08158 3.32327 6.03141C3.39005 5.98124 3.44324 5.91519 3.47801 5.83925C3.53343 5.72077 3.59247 5.60475 3.65763 5.4919C3.72278 5.37904 3.79253 5.27136 3.86629 5.16673C3.91367 5.09865 3.94338 5.01985 3.95272 4.93744C3.96207 4.85502 3.95077 4.77158 3.91983 4.69462L3.35503 3.286C3.32819 3.21136 3.32846 3.12964 3.35582 3.05518C3.38317 2.98072 3.43586 2.91826 3.50464 2.87875L5.81839 1.54435C5.88776 1.50537 5.96866 1.49213 6.04684 1.50697C6.12502 1.5218 6.19545 1.56376 6.24572 1.62544L7.17836 2.8163C7.22997 2.88167 7.29698 2.93322 7.37341 2.96632C7.44983 2.99942 7.53327 3.01305 7.61625 3.00597C7.87544 2.98534 8.13581 2.9844 8.39513 3.00316C8.47671 3.00898 8.55846 2.99462 8.63317 2.96136C8.70789 2.92809 8.77326 2.87694 8.82352 2.81243L9.75393 1.62152C9.80542 1.55998 9.87667 1.51823 9.95553 1.5034C10.0344 1.48857 10.1159 1.50159 10.1863 1.54023L12.5012 2.87679C12.5689 2.91742 12.6207 2.97988 12.6481 3.05387C12.6755 3.12787 12.6768 3.20899 12.652 3.28387L12.0866 4.68304C12.0559 4.75986 12.0446 4.84308 12.0538 4.92531C12.063 5.00754 12.0923 5.08623 12.1393 5.15438C12.2852 5.3689 12.4138 5.59479 12.5236 5.82987C12.5589 5.90495 12.6123 5.97007 12.6791 6.01937C12.7458 6.06866 12.8237 6.10058 12.9058 6.11225L14.4031 6.32462C14.4816 6.33727 14.5531 6.37723 14.6051 6.43747C14.6571 6.4977 14.6861 6.57434 14.6871 6.65388L14.6884 9.32484C14.6886 9.40477 14.6605 9.48219 14.609 9.54332C14.5575 9.60446 14.486 9.64534 14.4072 9.65868L12.9044 9.87355C12.8216 9.88552 12.7431 9.91801 12.6761 9.96805C12.6091 10.0181 12.5556 10.0841 12.5206 10.1601C12.4649 10.2773 12.4058 10.3933 12.3407 10.5061Z" stroke="black" stroke-linecap="round" stroke-linejoin="round"/>
<circle cx="8.02673" cy="7.95837" r="2" stroke="black" stroke-linecap="round" stroke-linejoin="round"/>
<path d="M9.95508 1.50299C10.0339 1.48816 10.1162 1.50146 10.1865 1.54009L12.501 2.87701C12.5686 2.91763 12.621 2.97978 12.6484 3.05377C12.6758 3.12776 12.6772 3.20935 12.6523 3.28424L12.0869 4.68267C12.0562 4.75949 12.0445 4.84361 12.0537 4.92584C12.063 5.0079 12.0928 5.08633 12.1396 5.15435C12.2856 5.36884 12.4136 5.5951 12.5234 5.83013C12.5587 5.90512 12.6121 5.97033 12.6787 6.01959C12.7454 6.06888 12.8241 6.10069 12.9063 6.11236L14.4033 6.32427C14.4818 6.33696 14.5536 6.37737 14.6055 6.43756C14.6573 6.49776 14.6865 6.5749 14.6875 6.65435L14.6885 9.32525C14.6886 9.40488 14.6606 9.48204 14.6094 9.54302C14.5579 9.60413 14.486 9.6449 14.4072 9.65826L12.9043 9.87408C12.8216 9.88607 12.7428 9.91781 12.6758 9.96783C12.6088 10.0179 12.5555 10.0843 12.5205 10.1602C12.4648 10.2773 12.4059 10.3932 12.3408 10.5059C12.1371 10.854 12.0675 11.2752 12.2178 11.6495L12.6436 12.711C12.6713 12.7859 12.6717 12.8683 12.6445 12.9434C12.6173 13.0185 12.5644 13.0814 12.4951 13.1211L10.1816 14.4561C10.1123 14.495 10.0313 14.508 9.95313 14.4932C9.87497 14.4784 9.80417 14.4367 9.75391 14.3751L8.82129 13.1836C8.76982 13.1185 8.70308 13.0673 8.62695 13.0342C8.55054 13.0011 8.46676 12.9871 8.38379 12.9942C8.12461 13.0148 7.86382 13.0159 7.60449 12.9971C7.5231 12.9914 7.44174 13.006 7.36719 13.0391C7.29257 13.0723 7.22699 13.1232 7.17676 13.1876L6.24609 14.379C6.1947 14.4403 6.12355 14.4823 6.04492 14.4971C5.96607 14.512 5.8838 14.4987 5.81348 14.46L3.49902 13.1231C3.43138 13.0825 3.37896 13.0203 3.35156 12.9463C3.32419 12.8724 3.32279 12.7907 3.34766 12.7159L3.91309 11.3174C3.94377 11.2407 3.95539 11.1573 3.94629 11.0753C3.93711 10.993 3.90728 10.9139 3.86035 10.8458C3.71443 10.6313 3.58639 10.405 3.47656 10.17C3.4413 10.095 3.38792 10.0298 3.32129 9.98052C3.25457 9.93123 3.17588 9.89942 3.09375 9.88775L1.59668 9.67584C1.51823 9.66315 1.44645 9.62273 1.39453 9.56256C1.34281 9.50248 1.31361 9.426 1.3125 9.34674L1.31152 6.67486C1.31138 6.59524 1.33942 6.51805 1.39063 6.45709C1.44209 6.39597 1.514 6.35521 1.59277 6.34185L3.0957 6.12701C3.17832 6.11474 3.25647 6.08147 3.32324 6.03131C3.38999 5.98114 3.44277 5.91484 3.47754 5.83892C3.53287 5.72063 3.59218 5.60493 3.65723 5.49224C3.72234 5.37947 3.79251 5.27162 3.86621 5.16705C3.91359 5.09898 3.94378 5.01996 3.95313 4.93756C3.96247 4.85514 3.95086 4.77135 3.91992 4.69439L3.35547 3.28619C3.32869 3.21172 3.32831 3.13004 3.35547 3.05572C3.38282 2.98126 3.4361 2.91847 3.50488 2.87896L5.81836 1.544C5.8877 1.50509 5.96875 1.49207 6.04688 1.50689C6.12502 1.52172 6.19583 1.56342 6.24609 1.62506L7.17871 2.81646C7.23026 2.88168 7.29677 2.93379 7.37305 2.96685C7.44946 2.99995 7.53324 3.01298 7.61621 3.00591C7.87539 2.98528 8.13618 2.98422 8.39551 3.00299C8.47691 3.00873 8.55825 2.99416 8.63281 2.96099C8.70745 2.92776 8.773 2.87698 8.82324 2.81256L9.75391 1.62115C9.8053 1.55983 9.87646 1.51785 9.95508 1.50299ZM8.02637 5.95806C6.92209 5.95826 6.02656 6.85378 6.02637 7.95806C6.02637 9.06251 6.92197 9.95786 8.02637 9.95806C9.13094 9.95806 10.0264 9.06263 10.0264 7.95806C10.0262 6.85366 9.13082 5.95806 8.02637 5.95806Z" fill="black"/>
</svg>
