<svg width="16" height="16" viewBox="0 0 16 16" fill="none" xmlns="http://www.w3.org/2000/svg">
<path d="M2.5 4.44152C2.5 3.58066 3.06061 2.84096 3.91395 2.72739C4.79328 2.61036 6.12073 2.5 8 2.5C9.87927 2.5 11.2067 2.61036 12.0861 2.72739C12.9394 2.84096 13.5 3.58066 13.5 4.44152V11.5585C13.5 12.4193 12.9394 13.159 12.0861 13.2726C11.2067 13.3896 9.87927 13.5 8 13.5C6.12073 13.5 4.79328 13.3896 3.91395 13.2726C3.06061 13.159 2.5 12.4193 2.5 11.5585V4.44152Z" fill="black" stroke="black" stroke-linecap="round" stroke-linejoin="round"/>
<path d="M10 2V14" stroke="white" stroke-linejoin="round"/>
<path d="M6 2V14" stroke="white" stroke-linejoin="round"/>
</svg>
