<svg width="16" height="16" viewBox="0 0 16 16" fill="none" xmlns="http://www.w3.org/2000/svg">
<path d="M13 2C13.5523 2 14 2.44772 14 3V11C14 11.5523 13.5523 12 13 12H7C6.44772 12 6 11.5523 6 11V3C6 2.44772 6.44772 2 7 2H13ZM10.75 4.625C10.2501 4.625 10.0001 4.9999 10 5C9.99993 4.9999 9.74995 4.62499 9.25 4.625C8.74998 4.62501 8.49998 5 8.5 5.5C8.50004 6.39159 9.69264 7.18343 9.95117 7.34473C9.98176 7.36381 10.0182 7.36381 10.0488 7.34473C10.3074 7.18344 11.5 6.39159 11.5 5.5C11.5 5 11.25 4.625 10.75 4.625Z" fill="#003784" fill-opacity="0.25"/>
<rect x="6" y="2" width="8" height="10" rx="1" stroke="#003784" stroke-linecap="round" stroke-linejoin="round"/>
<path d="M8.45189 13.6943L5.55412 14.4708C5.02065 14.6137 4.47231 14.2971 4.32937 13.7636L2.25882 6.03624C2.11588 5.50277 2.43246 4.95444 2.96593 4.81149L3.93185 4.55267" stroke="#003784" stroke-linecap="round" stroke-linejoin="round"/>
<path d="M11.5 5.5C11.5 6.39174 10.3072 7.18408 10.0489 7.34519C10.0184 7.36426 9.98165 7.36426 9.95107 7.34519C9.69281 7.18408 8.50004 6.39174 8.5 5.5C8.49998 5 8.74998 4.62501 9.25 4.625C9.75002 4.62499 10 5 10 5C10 5 10.25 4.625 10.75 4.625C11.25 4.625 11.5 5 11.5 5.5Z" stroke="#003784" stroke-linecap="round" stroke-linejoin="round"/>
<path d="M8.5 9.5H11.5" stroke="#003784" stroke-linecap="round" stroke-linejoin="round"/>
</svg>
