<svg width="16" height="16" viewBox="0 0 16 16" fill="none" xmlns="http://www.w3.org/2000/svg">
<rect x="6" y="2" width="8" height="10" rx="1" stroke="black" stroke-linecap="round" stroke-linejoin="round"/>
<path d="M8.45189 13.6945L5.55412 14.471C5.02065 14.6139 4.47231 14.2974 4.32937 13.7639L2.25882 6.03648C2.11588 5.50302 2.43246 4.95468 2.96593 4.81174L3.93185 4.55292" stroke="black" stroke-linecap="round" stroke-linejoin="round"/>
<path d="M11.5 5.5C11.5 6.39174 10.3072 7.18408 10.0489 7.34519C10.0184 7.36426 9.98165 7.36426 9.95107 7.34519C9.69281 7.18408 8.50004 6.39174 8.5 5.5C8.49998 5 8.74998 4.62501 9.25 4.625C9.75002 4.62499 10 5 10 5C10 5 10.25 4.625 10.75 4.625C11.25 4.625 11.5 5 11.5 5.5Z" stroke="black" stroke-linecap="round" stroke-linejoin="round"/>
<path d="M8.5 9.5H11.5" stroke="black" stroke-linecap="round" stroke-linejoin="round"/>
</svg>
