<svg width="16" height="16" viewBox="0 0 16 16" fill="none" xmlns="http://www.w3.org/2000/svg">
<path d="M8 8.66671C8.36819 8.66671 8.66667 8.36823 8.66667 8.00004C8.66667 7.63185 8.36819 7.33337 8 7.33337C7.63181 7.33337 7.33333 7.63185 7.33333 8.00004C7.33333 8.36823 7.63181 8.66671 8 8.66671Z" fill="black" stroke="black" stroke-linecap="round" stroke-linejoin="round"/>
<path d="M12.6667 8.66671C13.0349 8.66671 13.3333 8.36823 13.3333 8.00004C13.3333 7.63185 13.0349 7.33337 12.6667 7.33337C12.2985 7.33337 12 7.63185 12 8.00004C12 8.36823 12.2985 8.66671 12.6667 8.66671Z" fill="black" stroke="black" stroke-linecap="round" stroke-linejoin="round"/>
<path d="M3.33333 8.66671C3.70152 8.66671 4 8.36823 4 8.00004C4 7.63185 3.70152 7.33337 3.33333 7.33337C2.96514 7.33337 2.66667 7.63185 2.66667 8.00004C2.66667 8.36823 2.96514 8.66671 3.33333 8.66671Z" fill="black" stroke="black" stroke-linecap="round" stroke-linejoin="round"/>
</svg>
