<svg width="16" height="16" viewBox="0 0 16 16" fill="none" xmlns="http://www.w3.org/2000/svg">
<path d="M7.33334 8.00004C7.33334 8.36823 7.63182 8.66671 8.00001 8.66671C8.36819 8.66671 8.66667 8.36823 8.66667 8.00004C8.66667 7.63185 8.36819 7.33337 8.00001 7.33337C7.63182 7.33337 7.33334 7.63185 7.33334 8.00004Z" fill="black" stroke="black" stroke-linecap="round" stroke-linejoin="round"/>
<path d="M7.33334 12.6667C7.33334 13.0349 7.63182 13.3333 8.00001 13.3333C8.36819 13.3333 8.66667 13.0349 8.66667 12.6667C8.66667 12.2985 8.36819 12 8.00001 12C7.63182 12 7.33334 12.2985 7.33334 12.6667Z" fill="black" stroke="black" stroke-linecap="round" stroke-linejoin="round"/>
<path d="M7.33334 3.33341C7.33334 3.7016 7.63182 4.00008 8.00001 4.00008C8.36819 4.00008 8.66667 3.7016 8.66667 3.33341C8.66667 2.96522 8.36819 2.66675 8.00001 2.66675C7.63182 2.66675 7.33334 2.96522 7.33334 3.33341Z" fill="black" stroke="black" stroke-linecap="round" stroke-linejoin="round"/>
</svg>
