<svg width="16" height="16" viewBox="0 0 16 16" fill="none" xmlns="http://www.w3.org/2000/svg">
<path d="M7.33333 8.00004C7.33333 8.36823 7.63181 8.66671 8 8.66671C8.36819 8.66671 8.66666 8.36823 8.66666 8.00004C8.66666 7.63185 8.36819 7.33337 8 7.33337C7.63181 7.33337 7.33333 7.63185 7.33333 8.00004Z" fill="#003784" stroke="#003784" stroke-linecap="round" stroke-linejoin="round"/>
<path d="M7.33333 12.6667C7.33333 13.0349 7.63181 13.3333 8 13.3333C8.36819 13.3333 8.66666 13.0349 8.66666 12.6667C8.66666 12.2985 8.36819 12 8 12C7.63181 12 7.33333 12.2985 7.33333 12.6667Z" fill="#003784" stroke="#003784" stroke-linecap="round" stroke-linejoin="round"/>
<path d="M7.33333 3.33341C7.33333 3.7016 7.63181 4.00008 8 4.00008C8.36819 4.00008 8.66666 3.7016 8.66666 3.33341C8.66666 2.96522 8.36819 2.66675 8 2.66675C7.63181 2.66675 7.33333 2.96522 7.33333 3.33341Z" fill="#003784" stroke="#003784" stroke-linecap="round" stroke-linejoin="round"/>
</svg>
