<svg width="16" height="16" viewBox="0 0 16 16" fill="none" xmlns="http://www.w3.org/2000/svg">
<path d="M7 4C5.63076 4 4.26152 4.18148 3.38927 4.32577C2.81611 4.42059 2.37338 4.86121 2.28326 5.43512C2.15443 6.25552 2 7.54283 2 9C2 10.4572 2.15443 11.7445 2.28326 12.5649C2.37338 13.1388 2.81611 13.5794 3.38927 13.6742C4.26152 13.8185 5.63076 14 7 14C8.36924 14 9.73848 13.8185 10.6107 13.6742C11.1839 13.5794 11.6266 13.1388 11.7167 12.5649C11.8456 11.7445 12 10.4572 12 9" stroke="#003784" stroke-linecap="round" stroke-linejoin="round"/>
<path d="M13.5 2.5L7.72876 8.27124" stroke="#003784" stroke-linecap="round" stroke-linejoin="round"/>
<path d="M9.5 2H13.25C13.6642 2 14 2.33579 14 2.75V6.5" stroke="#003784" stroke-linecap="round" stroke-linejoin="round"/>
</svg>
