<svg width="16" height="16" viewBox="0 0 16 16" fill="none" xmlns="http://www.w3.org/2000/svg">
<path d="M6.08844 7.41004C6.06943 7.47169 6.05333 7.53461 6.04028 7.59865L6.08844 7.41004ZM6.08844 7.41004C6.29471 6.74093 6.84265 6.22165 7.52854 6.05591M9.50083 6.67805C9.81151 7.0305 10 7.49325 10 8.00002C10 9.10459 9.10457 10 8 10C7.49772 10 7.03868 9.81486 6.68742 9.50908" stroke="#003784" stroke-linecap="round" stroke-linejoin="round"/>
<path d="M15 8C15 9.66667 11.866 13 8 13C6.66349 13 5.41446 12.6016 4.35216 12.0114C4.31469 11.9906 4.27747 11.9696 4.24047 11.9483L4.23127 11.9382L11.9859 4.18124L12.0115 4.20239C13.8185 5.325 15 6.97666 15 8Z" fill="#003784" fill-opacity="0.25"/>
<path d="M13.6667 2.5L11.9859 4.18124M2.5 13.67L4.23127 11.9382M4.23127 11.9382L4.24047 11.9483M4.23127 11.9382L11.9859 4.18124M10.0596 3.31191C9.40844 3.11459 8.7168 3 8 3C4.13401 3 1 6.33333 1 8C1 8.7316 1.60388 9.78435 2.60847 10.7353M4.24047 11.9483C4.27747 11.9696 4.31469 11.9906 4.35216 12.0114M4.24047 11.9483L4.35216 12.0114M4.35216 12.0114C5.41446 12.6016 6.66349 13 8 13C11.866 13 15 9.66667 15 8C15 6.97666 13.8185 5.325 12.0115 4.20239L11.9859 4.18124" stroke="#003784" stroke-linecap="round" stroke-linejoin="round"/>
</svg>
