<svg width="16" height="16" viewBox="0 0 16 16" fill="none" xmlns="http://www.w3.org/2000/svg">
<path d="M15 8C15 9.66667 11.866 13 8 13C4.13401 13 1 9.66667 1 8C1 6.33333 4.13401 3 8 3C11.866 3 15 6.33333 15 8Z" stroke="#003784" stroke-linecap="round" stroke-linejoin="round"/>
<circle cx="8" cy="8" r="2" stroke="#003784" stroke-linecap="round" stroke-linejoin="round"/>
<path d="M8 3C11.866 3 15 6.33333 15 8C15 9.66667 11.866 13 8 13C4.13401 13 1 9.66667 1 8C1 6.33333 4.13401 3 8 3ZM8 6C6.89543 6 6 6.89543 6 8C6 9.10457 6.89543 10 8 10C9.10457 10 10 9.10457 10 8C10 6.89543 9.10457 6 8 6Z" fill="#003784" fill-opacity="0.25"/>
</svg>
