<svg width="16" height="16" viewBox="0 0 16 16" fill="none" xmlns="http://www.w3.org/2000/svg">
<path d="M13 6V4.5L9.5 1H8" stroke="black" stroke-linecap="round" stroke-linejoin="round"/>
<path d="M3 2C3 1.44772 3.44772 1 4 1H8C8.55228 1 9 1.44772 9 2V4C9 4.55228 9.44772 5 10 5H12C12.5523 5 13 5.44772 13 6V14C13 14.5523 12.5523 15 12 15H4C3.44772 15 3 14.5523 3 14V2Z" stroke="black"/>
<path d="M5.33333 12.0002V11.3335" stroke="black" stroke-linecap="round" stroke-linejoin="round"/>
<path d="M8 12V8" stroke="black" stroke-linecap="round" stroke-linejoin="round"/>
<path d="M10.6667 12V10" stroke="black" stroke-linecap="round" stroke-linejoin="round"/>
</svg>
