<svg width="16" height="16" viewBox="0 0 16 16" fill="none" xmlns="http://www.w3.org/2000/svg">
<path d="M13 14L10.4419 10.638C10.1583 10.2652 9.65381 10.1392 9.22821 10.335L8.5285 10.6569C8.09494 10.8563 7.58088 10.7216 7.30085 10.3352L6.3472 9.01913C5.96957 8.498 5.20514 8.46409 4.78284 8.94973L3.02051 10.9764C3.00728 10.9916 3 11.0111 3 11.0312" stroke="black" stroke-linecap="round" stroke-linejoin="round"/>
<path d="M13 6V4.5L9.5 1H8" stroke="black" stroke-linecap="round" stroke-linejoin="round"/>
<path d="M3 2C3 1.44772 3.44772 1 4 1H8C8.55228 1 9 1.44772 9 2V4C9 4.55228 9.44772 5 10 5H12C12.5523 5 13 5.44772 13 6V14C13 14.5523 12.5523 15 12 15H4C3.44772 15 3 14.5523 3 14V2Z" stroke="black"/>
<circle cx="5.75" cy="4.75" r="0.75" fill="black"/>
</svg>
