<svg width="16" height="16" viewBox="0 0 16 16" fill="none" xmlns="http://www.w3.org/2000/svg">
<path d="M6.79904 8L7.08771 8.5M9.39711 12.5L9.10844 12" stroke="black" stroke-linecap="round" stroke-linejoin="round"/>
<path d="M9.39711 8L9.10844 8.5M6.79904 12.5L7.08771 12" stroke="black" stroke-linecap="round" stroke-linejoin="round"/>
<path d="M10.6962 10.25L10 10.25M5.5 10.25L6.13062 10.25" stroke="black" stroke-linecap="round" stroke-linejoin="round"/>
<circle cx="8.04904" cy="10.25" r="1.75" stroke="black" stroke-linecap="round" stroke-linejoin="round"/>
<path d="M13 6V4.5L9.5 1H8" stroke="black" stroke-linecap="round" stroke-linejoin="round"/>
<path d="M3 2C3 1.44772 3.44772 1 4 1H8C8.55228 1 9 1.44772 9 2V4C9 4.55228 9.44772 5 10 5H12C12.5523 5 13 5.44772 13 6V14C13 14.5523 12.5523 15 12 15H4C3.44772 15 3 14.5523 3 14V2Z" stroke="black"/>
</svg>
