<svg width="16" height="16" viewBox="0 0 16 16" fill="none" xmlns="http://www.w3.org/2000/svg">
<path d="M13 6V4.5L9.5 1H8" stroke="black" stroke-linecap="round" stroke-linejoin="round"/>
<path d="M3 2C3 1.44772 3.44772 1 4 1H8C8.55228 1 9 1.44772 9 2V4C9 4.55228 9.44772 5 10 5H12C12.5523 5 13 5.44772 13 6V14C13 14.5523 12.5523 15 12 15H4C3.44772 15 3 14.5523 3 14V2Z" fill="black" stroke="black"/>
<path d="M8.10055 11.6003L8.10055 8.10034M8.10055 11.6003L6.25 9.74982M8.10055 11.6003L9.95094 9.74982" stroke="white" stroke-linecap="round" stroke-linejoin="round"/>
</svg>
