<svg width="16" height="16" viewBox="0 0 16 16" fill="none" xmlns="http://www.w3.org/2000/svg">
<path d="M13 6V4.5L9.5 1H8" stroke="#003784" stroke-linecap="round" stroke-linejoin="round"/>
<path d="M3 2C3 1.44772 3.44772 1 4 1H8C8.55228 1 9 1.44772 9 2V4C9 4.55228 9.44772 5 10 5H12C12.5523 5 13 5.44772 13 6V14C13 14.5523 12.5523 15 12 15H4C3.44772 15 3 14.5523 3 14V2Z" fill="#003784" fill-opacity="0.25" stroke="#003784"/>
<circle cx="8" cy="7.5582" r="1.0582" stroke="#003784" stroke-linecap="round" stroke-linejoin="round"/>
<path d="M10 12.3999C10 11.9999 9.6 10.3999 8 10.3999C6.4 10.3999 6 11.9999 6 12.3999C6 12.3999 7.15878 12.7999 8 12.7999C8.84122 12.7999 10 12.3999 10 12.3999Z" stroke="#003784" stroke-linecap="round" stroke-linejoin="round"/>
</svg>
