<svg width="16" height="16" viewBox="0 0 16 16" fill="none" xmlns="http://www.w3.org/2000/svg">
<path d="M7.8431 1.12598L8.04081 0.666725C7.88134 0.598075 7.69767 0.617062 7.55562 0.716883C7.41357 0.816704 7.33347 0.983068 7.34402 1.15636L7.8431 1.12598ZM10.6663 5.41406L11.1663 5.41408V5.41406H10.6663ZM10.6615 5.58691L10.1618 5.5687V5.5687L10.6615 5.58691ZM8.41732 9.4043L8.15763 8.97703C7.9702 9.09094 7.87889 9.31372 7.93246 9.52641C7.98603 9.73911 8.17196 9.89206 8.391 9.9036L8.41732 9.4043ZM8.66634 9.41406L8.66631 9.91406H8.66634V9.41406ZM12.3197 7.64844L12.7824 7.45912C12.7152 7.29486 12.566 7.17853 12.3903 7.15345C12.2146 7.12838 12.0388 7.19831 11.9283 7.33721L12.3197 7.64844ZM12.6663 9.41406L13.1663 9.4141V9.41405L12.6663 9.41406ZM8.00033 14.0801V14.5801H8.00036L8.00033 14.0801ZM3.33333 9.41406L2.83333 9.41405V9.4141L3.33333 9.41406ZM3.40853 8.57617L3.90049 8.66548L3.90052 8.66532L3.40853 8.57617ZM3.42415 8.50098L2.93374 8.40354L2.93371 8.40371L3.42415 8.50098ZM3.45247 8.36328L3.93971 8.47554L3.93975 8.47536L3.45247 8.36328ZM3.47298 8.28223L2.98785 8.16119L2.98781 8.16138L3.47298 8.28223ZM3.64681 7.73242L4.11313 7.91283L4.11321 7.91262L3.64681 7.73242ZM3.78548 7.41211L3.33404 7.19716L3.33395 7.19735L3.78548 7.41211ZM4.15951 6.76367L4.57075 7.04806L4.57083 7.04794L4.15951 6.76367ZM4.20736 6.69434L3.80129 6.4026L3.80122 6.4027L4.20736 6.69434ZM4.28646 6.58887L4.68416 6.8919L4.68423 6.89182L4.28646 6.58887ZM4.32845 6.5332L3.93529 6.22429L3.93523 6.22437L4.32845 6.5332ZM4.34603 6.51172L4.73736 6.82294L4.73741 6.82287L4.34603 6.51172ZM5.52376 5.45898L5.78957 5.88248C6.01588 5.74044 6.09052 5.44557 5.95905 5.21296C5.82758 4.98036 5.53647 4.89221 5.29805 5.01283L5.52376 5.45898ZM5.45931 5.48926L5.21537 5.0528C4.9863 5.18083 4.89519 5.46417 5.0067 5.70173C5.11821 5.93928 5.3944 6.0502 5.63924 5.95576L5.45931 5.48926ZM7.85384 1.41406L8.35384 1.41408V1.41406H7.85384ZM7.8431 1.12598L7.64539 1.58523C9.12903 2.22393 10.1663 3.69838 10.1663 5.41406H10.6663H11.1663C11.1663 3.2847 9.87807 1.45766 8.04081 0.666725L7.8431 1.12598ZM10.6663 5.41406L10.1663 5.41405C10.1663 5.45998 10.1642 5.50322 10.1618 5.5687L10.6615 5.58691L11.1611 5.60513C11.1629 5.55585 11.1663 5.48392 11.1663 5.41408L10.6663 5.41406ZM10.6615 5.58691L10.1618 5.5687C10.1091 7.01332 9.32049 8.27025 8.15763 8.97703L8.41732 9.4043L8.67701 9.83157C10.1155 8.95726 11.0957 7.39928 11.1611 5.60513L10.6615 5.58691ZM8.41732 9.4043L8.391 9.9036C8.46468 9.90749 8.56579 9.91406 8.66631 9.91406L8.66634 9.41406L8.66638 8.91406C8.59969 8.91406 8.53499 8.90981 8.44364 8.90499L8.41732 9.4043ZM8.66634 9.41406V9.91406C10.3059 9.91406 11.7656 9.1484 12.711 7.95966L12.3197 7.64844L11.9283 7.33721C11.1639 8.29844 9.98727 8.91406 8.66634 8.91406V9.41406ZM12.3197 7.64844L11.8569 7.83775C12.0558 8.3239 12.1663 8.85581 12.1663 9.41408L12.6663 9.41406L13.1663 9.41405C13.1663 8.7226 13.0292 8.0623 12.7824 7.45912L12.3197 7.64844ZM12.6663 9.41406L12.1663 9.41403C12.1662 11.715 10.3012 13.5799 8.00029 13.5801L8.00033 14.0801L8.00036 14.5801C10.8535 14.5799 13.1661 12.2673 13.1663 9.4141L12.6663 9.41406ZM8.00033 14.0801V13.5801C5.69914 13.5801 3.83349 11.715 3.83333 9.41403L3.33333 9.41406L2.83333 9.4141C2.83353 12.2675 5.14706 14.5801 8.00033 14.5801V14.0801ZM3.33333 9.41406L3.83333 9.41408C3.83334 9.1582 3.85645 8.90806 3.90049 8.66548L3.40853 8.57617L2.91657 8.48687C2.86191 8.78794 2.83334 9.09784 2.83333 9.41405L3.33333 9.41406ZM3.40853 8.57617L3.90052 8.66532C3.90638 8.63296 3.90146 8.66449 3.9146 8.59824L3.42415 8.50098L2.93371 8.40371C2.93233 8.41064 2.93089 8.41712 2.92755 8.43255C2.92472 8.44561 2.92047 8.46533 2.91654 8.48703L3.40853 8.57617ZM3.42415 8.50098L3.91457 8.59841C3.92506 8.54558 3.93145 8.5114 3.93971 8.47554L3.45247 8.36328L2.96524 8.25102C2.9525 8.30631 2.94155 8.36423 2.93374 8.40354L3.42415 8.50098ZM3.45247 8.36328L3.93975 8.47536C3.9455 8.45037 3.94583 8.45258 3.95816 8.40307L3.47298 8.28223L2.98781 8.16138C2.98668 8.16589 2.97196 8.22181 2.9652 8.25121L3.45247 8.36328ZM3.47298 8.28223L3.95811 8.40326C4.00011 8.23493 4.05183 8.07127 4.11313 7.91283L3.64681 7.73242L3.18049 7.55202C3.10387 7.75006 3.03969 7.95343 2.98785 8.16119L3.47298 8.28223ZM3.64681 7.73242L4.11321 7.91262C4.14999 7.81742 4.19153 7.72249 4.23701 7.62687L3.78548 7.41211L3.33395 7.19735C3.27974 7.31133 3.2278 7.42956 3.18041 7.55222L3.64681 7.73242ZM3.78548 7.41211L4.23692 7.62706C4.33393 7.42331 4.4452 7.22961 4.57075 7.04806L4.15951 6.76367L3.74826 6.47928C3.59067 6.70717 3.45287 6.9476 3.33404 7.19716L3.78548 7.41211ZM4.15951 6.76367L4.57083 7.04794C4.59501 7.01297 4.59998 7.0048 4.6135 6.98597L4.20736 6.69434L3.80122 6.4027C3.78199 6.42948 3.75594 6.46816 3.74818 6.4794L4.15951 6.76367ZM4.20736 6.69434L4.61342 6.98607C4.63387 6.95761 4.65513 6.93001 4.68416 6.8919L4.28646 6.58887L3.88875 6.28583C3.86454 6.31761 3.83214 6.35966 3.80129 6.4026L4.20736 6.69434ZM4.28646 6.58887L4.68423 6.89182C4.71293 6.85413 4.70727 6.86037 4.72167 6.84204L4.32845 6.5332L3.93523 6.22437C3.9239 6.23879 3.91376 6.25235 3.90639 6.26224C3.89795 6.27358 3.89361 6.27945 3.88869 6.28592L4.28646 6.58887ZM4.32845 6.5332L4.72161 6.84211C4.72095 6.84296 4.72043 6.84361 4.72009 6.84402C4.71992 6.84423 4.71979 6.84439 4.71971 6.8445C4.71962 6.84461 4.71957 6.84466 4.71957 6.84467C4.71957 6.84467 4.71961 6.84462 4.71969 6.84452C4.71977 6.84443 4.71989 6.84428 4.72006 6.84408C4.72041 6.84365 4.72085 6.84312 4.72155 6.84229C4.72265 6.84095 4.72509 6.83804 4.72752 6.83509C4.7301 6.83196 4.73352 6.82777 4.73736 6.82294L4.34603 6.51172L3.95469 6.2005C3.95567 6.19927 3.95618 6.19866 3.95581 6.19911C3.9553 6.19973 3.95476 6.20038 3.9529 6.20261C3.95025 6.2058 3.94305 6.21442 3.93529 6.22429L4.32845 6.5332ZM4.34603 6.51172L4.73741 6.82287C5.03132 6.45319 5.38744 6.13488 5.78957 5.88248L5.52376 5.45898L5.25796 5.03549C4.76049 5.34773 4.31932 5.74186 3.95464 6.20056L4.34603 6.51172ZM5.52376 5.45898L5.29805 5.01283C5.29492 5.01441 5.29187 5.01596 5.28941 5.01722C5.28678 5.01855 5.28473 5.0196 5.28273 5.02061C5.27877 5.02261 5.27646 5.02376 5.27489 5.02452C5.27175 5.02604 5.27398 5.02484 5.27938 5.02275L5.45931 5.48926L5.63924 5.95576C5.69197 5.93542 5.74033 5.90976 5.74947 5.90514L5.52376 5.45898ZM5.45931 5.48926L5.70325 5.92571C7.28257 5.04301 8.35378 3.35473 8.35384 1.41408L7.85384 1.41406L7.35384 1.41405C7.35379 2.97722 6.49202 4.33927 5.21537 5.0528L5.45931 5.48926ZM7.85384 1.41406H8.35384C8.35384 1.30146 8.3481 1.19286 8.34218 1.09559L7.8431 1.12598L7.34402 1.15636C7.3497 1.2496 7.35384 1.33323 7.35384 1.41406H7.85384Z" fill="black"/>
</svg>
