<svg width="16" height="16" viewBox="0 0 16 16" fill="none" xmlns="http://www.w3.org/2000/svg">
<path d="M6.76367 2.27344C7.36105 2.27344 7.88952 2.72318 8.32129 3.17285L8.67871 3.55567C9.11023 4.00512 9.63828 4.45491 10.2354 4.45508H12.501C13.3293 4.45525 14 5.12676 14 5.95508V11.9307C13.9998 12.6554 13.4818 13.2739 12.7637 13.3721C11.6122 13.5294 9.80612 13.7275 8 13.7275C6.19388 13.7275 4.38782 13.5294 3.23633 13.3721C2.51824 13.2739 2.00023 12.6554 2 11.9307V3.77344C2 2.94514 2.67077 2.27365 3.49902 2.27344C4.36617 2.27345 5.52859 2.27343 6.76367 2.27344ZM8.04883 7.2002C7.08243 7.20031 6.29883 7.98377 6.29883 8.9502C6.29883 9.91662 7.08243 10.7001 8.04883 10.7002C9.01533 10.7002 9.79883 9.91669 9.79883 8.9502C9.79883 7.9837 9.01533 7.2002 8.04883 7.2002Z" fill="#003784" fill-opacity="0.25"/>
<path d="M2 3.77297C2 2.94454 2.67099 2.27296 3.49942 2.27297C4.3666 2.27298 5.52867 2.27299 6.76381 2.27299C7.44637 2.27299 8.03877 2.86074 8.5 3.36388C8.96123 3.86703 9.55312 4.45477 10.2357 4.45477C10.9738 4.45477 11.8065 4.45477 12.5007 4.45477C13.3291 4.45477 14 5.12634 14 5.95477V11.9302C14 12.6551 13.4821 13.2743 12.7638 13.3724C11.6123 13.5298 9.80617 13.7275 8 13.7275C6.19383 13.7275 4.38766 13.5298 3.23618 13.3724C2.51792 13.2743 2 12.6551 2 11.9302V3.77297Z" stroke="#003784" stroke-linecap="round" stroke-linejoin="round"/>
<path d="M6.79904 6.7002L7.08772 7.2002M9.39712 11.2002L9.10844 10.7002" stroke="#003784" stroke-linecap="round" stroke-linejoin="round"/>
<path d="M9.39712 6.7002L9.10844 7.2002M6.79904 11.2002L7.08772 10.7002" stroke="#003784" stroke-linecap="round" stroke-linejoin="round"/>
<path d="M10.6962 8.9502L10 8.9502M5.5 8.95019L6.13062 8.95019" stroke="#003784" stroke-linecap="round" stroke-linejoin="round"/>
<circle cx="8.04904" cy="8.9502" r="1.75" stroke="#003784" stroke-linecap="round" stroke-linejoin="round"/>
</svg>
