<svg width="16" height="16" viewBox="0 0 16 16" fill="none" xmlns="http://www.w3.org/2000/svg">
<path d="M2 3.77297C2 2.94454 2.67099 2.27296 3.49942 2.27297C4.3666 2.27298 5.52867 2.27299 6.76381 2.27299C7.44637 2.27299 8.03877 2.86074 8.5 3.36388C8.96123 3.86703 9.55312 4.45477 10.2357 4.45477C10.9738 4.45477 11.8065 4.45477 12.5007 4.45477C13.3291 4.45477 14 5.12634 14 5.95477V11.9302C14 12.6551 13.4821 13.2743 12.7638 13.3724C11.6123 13.5298 9.80617 13.7275 8 13.7275C6.19383 13.7275 4.38766 13.5298 3.23618 13.3724C2.51792 13.2743 2 12.6551 2 11.9302V3.77297Z" stroke="black" stroke-linecap="round" stroke-linejoin="round"/>
</svg>
