<svg width="16" height="16" viewBox="0 0 16 16" fill="none" xmlns="http://www.w3.org/2000/svg">
<path d="M2 4.04543C2 3.217 2.67099 2.54542 3.49942 2.54543C4.3666 2.54544 5.52867 2.54545 6.76381 2.54545C7.44637 2.54545 8.03877 3.1332 8.5 3.63634C8.96123 4.13949 9.55312 4.72723 10.2357 4.72723C10.9738 4.72723 11.8065 4.72723 12.5007 4.72723C13.3291 4.72723 14 5.3988 14 6.22723V12.2026C14 12.9276 13.4821 13.5467 12.7638 13.6449C11.6123 13.8022 9.80617 14 8 14C6.19383 14 4.38766 13.8022 3.23618 13.6449C2.51792 13.5467 2 12.9276 2 12.2026V4.04543Z" fill="black" stroke="black" stroke-linecap="round" stroke-linejoin="round"/>
<path d="M10.3881 7.64628L7.97353 10.9663C7.79282 11.2148 7.43286 11.243 7.21561 11.0258L6.25 10.0602" stroke="white" stroke-linecap="round" stroke-linejoin="round"/>
</svg>
