<svg width="16" height="16" viewBox="0 0 16 16" fill="none" xmlns="http://www.w3.org/2000/svg">
<path d="M14 6C14 9.79309 8.60468 13.1366 8.0465 13.4723C8.01561 13.4909 7.98439 13.4909 7.9535 13.4723C7.39533 13.1366 2.00016 9.79309 2 6C1.99992 4 2.99992 2.50002 5 2.5C7.00008 2.49998 8 4 8 4C8 4 9.00008 2.5 11 2.5C12.9999 2.5 14 4 14 6Z" fill="#003784" fill-opacity="0.25"/>
<path d="M14 6C14 9.79309 8.60468 13.1366 8.0465 13.4723C8.01561 13.4909 7.98439 13.4909 7.9535 13.4723C7.39533 13.1366 2.00016 9.79309 2 6C1.99992 4 2.99992 2.50002 5 2.5C7.00008 2.49998 8 4 8 4C8 4 9.00008 2.5 11 2.5C12.9999 2.5 14 4 14 6Z" stroke="#003784" stroke-linecap="round" stroke-linejoin="round"/>
<path d="M3 8.4002H5.60353C5.6421 8.4002 5.67723 8.37801 5.69381 8.34319L6.28515 7.10139C6.30374 7.06233 6.3598 7.06372 6.37644 7.10366L7.93492 10.844C7.95408 10.89 8.02136 10.8827 8.03027 10.8337L8.97163 5.65605C8.98037 5.60795 9.04583 5.59969 9.06625 5.64411L10.3066 8.34197C10.3229 8.37745 10.3584 8.4002 10.3974 8.4002H13" stroke="#003784" stroke-linecap="round"/>
</svg>
