<svg width="16" height="16" viewBox="0 0 16 16" fill="none" xmlns="http://www.w3.org/2000/svg">
<path d="M2 4.74439C2 4.00274 2.54228 3.37428 3.27924 3.29101C4.43238 3.16071 6.21619 3 8 3C9.78381 3 11.5676 3.16071 12.7208 3.29101C13.4577 3.37428 14 4.00274 14 4.74439V11.2556C14 11.9973 13.4577 12.6257 12.7208 12.709C11.5676 12.8393 9.78381 13 8 13C6.21619 13 4.43238 12.8393 3.27924 12.709C2.54228 12.6257 2 11.9973 2 11.2556V4.74439Z" stroke="black" stroke-linecap="round" stroke-linejoin="round"/>
<path d="M2 9L3.45139 7.54861C4.28299 6.71701 5.64915 6.77898 6.40205 7.68245L6.62717 7.9526C7.14763 8.57716 8.01105 8.79558 8.7659 8.49364C9.5053 8.19788 10.3509 8.40098 10.8753 9.0003L13.5 12" stroke="black" stroke-linecap="round" stroke-linejoin="round"/>
<circle cx="10.75" cy="5.75" r="0.75" fill="black"/>
</svg>
