<svg width="16" height="16" viewBox="0 0 16 16" fill="none" xmlns="http://www.w3.org/2000/svg">
<path d="M3.2 4.69894C3.2 3.95729 3.74155 3.32886 4.47875 3.24769C5.51778 3.13328 7.05889 3 8.6 3C10.1411 3 11.6822 3.13328 12.7212 3.24769C13.4584 3.32886 14 3.95729 14 4.69894V10.3011C14 11.0427 13.4584 11.6711 12.7212 11.7523C11.6822 11.8667 10.1411 12 8.6 12C7.05889 12 5.51778 11.8667 4.47875 11.7523C3.74155 11.6711 3.2 11.0427 3.2 10.3011V4.69894Z" stroke="#003784" stroke-linecap="round" stroke-linejoin="round"/>
<path d="M4.40598 7.19397L3.22655 8.3734C3.20955 8.3904 3.2 8.41346 3.2 8.4375V9.87108C3.2 10.8599 3.92296 11.6984 4.90686 11.7974C5.91717 11.899 7.25858 12 8.6 12C10.7318 12 12.3716 11.7857 12.9675 11.6955C13.1232 11.6719 13.2578 11.5793 13.3398 11.4448C13.4649 11.2396 13.4423 10.9769 13.284 10.796L11.1877 8.40022C10.7158 7.86083 9.95477 7.67804 9.2893 7.94423C8.60994 8.21597 7.83286 8.01939 7.36445 7.45729L7.25262 7.32309C6.52626 6.45147 5.20826 6.39168 4.40598 7.19397Z" fill="#003784" fill-opacity="0.25" stroke="#003784" stroke-linecap="round" stroke-linejoin="round"/>
<circle cx="11.125" cy="5.69995" r="0.75" fill="#003784"/>
<path d="M1.19104 5.5144C1.19104 5.5144 1.19101 5.87688 1.19104 6.10915C1.19124 7.42246 1.17849 8.53554 1.23113 9.47261C1.19923 11.9535 2.27253 13.3008 4.55519 13.7588C5.14063 13.8762 5.7439 13.8414 6.50112 13.8626C9.08753 13.8626 9.27153 13.8675 11.1581 13.7588C11.382 13.7459 11.8633 13.707 11.8633 13.707" stroke="#003784" stroke-linecap="round"/>
</svg>
