<svg width="16" height="16" viewBox="0 0 16 16" fill="none" xmlns="http://www.w3.org/2000/svg">
<path d="M6.5 4H13" stroke="black" stroke-linecap="round" stroke-linejoin="round"/>
<path d="M6.5 8H13" stroke="black" stroke-linecap="round" stroke-linejoin="round"/>
<path d="M6.5 12H13" stroke="black" stroke-linecap="round" stroke-linejoin="round"/>
<path d="M2.85938 11.7775C3.03906 11.7775 3.19336 11.7336 3.32227 11.6456C3.45312 11.5577 3.51855 11.4315 3.51855 11.2671C3.51855 11.1417 3.4668 11.0342 3.36328 10.9447C3.25977 10.8535 3.12012 10.8079 2.94434 10.8079C2.8252 10.8079 2.72656 10.8218 2.64844 10.8494C2.57227 10.8771 2.51172 10.9138 2.4668 10.9593C2.42188 11.0049 2.37891 11.0635 2.33789 11.1352C2.29883 11.2068 2.2627 11.2744 2.22949 11.3379C2.20996 11.3721 2.1748 11.399 2.12402 11.4185C2.07324 11.438 2.01465 11.4478 1.94824 11.4478C1.87012 11.4478 1.79785 11.4218 1.73145 11.3697C1.66699 11.3159 1.63477 11.2451 1.63477 11.1572C1.63477 11.0725 1.66504 10.9838 1.72559 10.891C1.78809 10.7965 1.87793 10.707 1.99512 10.6223C2.11426 10.5376 2.26172 10.4701 2.4375 10.4196C2.61328 10.3675 2.80957 10.3414 3.02637 10.3414C3.21582 10.3414 3.38867 10.3634 3.54492 10.4074C3.70117 10.4497 3.83691 10.5116 3.95215 10.593C4.06738 10.6744 4.1543 10.7688 4.21289 10.8763C4.27148 10.9838 4.30078 11.0994 4.30078 11.2231C4.30078 11.3859 4.25781 11.526 4.17188 11.6432C4.08789 11.7588 3.9668 11.872 3.80859 11.9827C3.96094 12.0511 4.08887 12.1292 4.19238 12.2171C4.29785 12.3051 4.37695 12.4028 4.42969 12.5102C4.48242 12.6161 4.50879 12.7308 4.50879 12.8546C4.50879 13.0028 4.47266 13.146 4.40039 13.2844C4.33008 13.4228 4.22559 13.5466 4.08691 13.6557C3.94824 13.7631 3.7832 13.8478 3.5918 13.9097C3.40234 13.9699 3.19238 14 2.96191 14C2.72754 14 2.51758 13.965 2.33203 13.895C2.14648 13.825 1.99316 13.7379 1.87207 13.6337C1.75293 13.5279 1.66211 13.4188 1.59961 13.3064C1.53906 13.1941 1.50879 13.1013 1.50879 13.028C1.50879 12.9336 1.54492 12.8578 1.61719 12.8009C1.69141 12.7422 1.7832 12.7129 1.89258 12.7129C1.94727 12.7129 2 12.7268 2.05078 12.7545C2.10156 12.7805 2.13477 12.8123 2.15039 12.8497C2.25195 13.076 2.36035 13.2446 2.47559 13.3553C2.59277 13.4644 2.75684 13.5189 2.96777 13.5189C3.08887 13.5189 3.20508 13.4945 3.31641 13.4456C3.42969 13.3952 3.52246 13.3211 3.59473 13.2234C3.66895 13.1257 3.70605 13.0125 3.70605 12.8839C3.70605 12.6934 3.64355 12.5444 3.51855 12.437C3.39355 12.3279 3.21973 12.2733 2.99707 12.2733C2.95801 12.2733 2.89746 12.2766 2.81543 12.2831C2.7334 12.2896 2.68066 12.2929 2.65723 12.2929C2.5498 12.2929 2.4668 12.2709 2.4082 12.2269C2.34961 12.1813 2.32031 12.1186 2.32031 12.0389C2.32031 11.9607 2.35547 11.898 2.42578 11.8508C2.49609 11.8019 2.60059 11.7775 2.73926 11.7775H2.85938Z" fill="black"/>
<path d="M2.55469 9.19426H4.08398C4.23633 9.19426 4.35254 9.22032 4.43262 9.27242C4.5127 9.32452 4.55273 9.39535 4.55273 9.4849C4.55273 9.56469 4.52051 9.63226 4.45605 9.68762C4.39355 9.74298 4.29785 9.77066 4.16895 9.77066H2.0127C1.86621 9.77066 1.75195 9.73728 1.66992 9.67052C1.58789 9.60213 1.54688 9.52235 1.54688 9.43117C1.54688 9.37256 1.57324 9.29521 1.62598 9.19915C1.67871 9.10146 1.73633 9.02493 1.79883 8.96957C2.05859 8.74488 2.29297 8.55274 2.50195 8.39318C2.71094 8.23199 2.86035 8.12615 2.9502 8.07568C3.11035 7.98124 3.24316 7.8868 3.34863 7.79236C3.45605 7.6963 3.53711 7.59861 3.5918 7.49928C3.64844 7.39834 3.67676 7.29983 3.67676 7.20376C3.67676 7.09956 3.64648 7.00675 3.58594 6.92534C3.52734 6.8423 3.44629 6.77798 3.34277 6.73239C3.24121 6.6868 3.12988 6.66401 3.00879 6.66401C2.75293 6.66401 2.55176 6.75763 2.40527 6.94488C2.38574 6.9693 2.35254 7.03606 2.30566 7.14515C2.26074 7.25424 2.20898 7.33809 2.15039 7.39671C2.09375 7.45532 2.00977 7.48463 1.89844 7.48463C1.80078 7.48463 1.71973 7.45777 1.65527 7.40403C1.59082 7.3503 1.55859 7.27703 1.55859 7.18422C1.55859 7.07188 1.58887 6.95464 1.64941 6.83253C1.70996 6.71041 1.7998 6.59969 1.91895 6.50037C2.04004 6.40105 2.19238 6.32127 2.37598 6.26102C2.56152 6.19915 2.77832 6.16821 3.02637 6.16821C3.3252 6.16821 3.58008 6.20729 3.79102 6.28544C3.92773 6.33755 4.04785 6.40919 4.15137 6.50037C4.25488 6.59155 4.33496 6.69739 4.3916 6.81787C4.4502 6.93673 4.47949 7.06048 4.47949 7.18911C4.47949 7.39101 4.41895 7.575 4.29785 7.74108C4.17871 7.90553 4.05664 8.03497 3.93164 8.12941C3.80664 8.22222 3.59668 8.36876 3.30176 8.56903C3.00879 8.7693 2.80762 8.92479 2.69824 9.03551C2.65137 9.07947 2.60352 9.13239 2.55469 9.19426Z" fill="black"/>
<path d="M2.90918 5.26784V3.04532C2.41309 3.36282 2.0791 3.52157 1.90723 3.52157C1.8252 3.52157 1.75195 3.49471 1.6875 3.44098C1.625 3.38562 1.59375 3.32212 1.59375 3.25047C1.59375 3.16744 1.625 3.10638 1.6875 3.0673C1.75 3.02822 1.86035 2.97775 2.01855 2.91588C2.25488 2.82307 2.44336 2.72537 2.58398 2.6228C2.72656 2.52022 2.85254 2.40543 2.96191 2.27843C3.07129 2.15142 3.14258 2.07327 3.17578 2.04396C3.20898 2.01465 3.27148 2 3.36328 2C3.4668 2 3.5498 2.03338 3.6123 2.10014C3.6748 2.16689 3.70605 2.25889 3.70605 2.37612V5.17259C3.70605 5.49986 3.57227 5.6635 3.30469 5.6635C3.18555 5.6635 3.08984 5.63012 3.01758 5.56336C2.94531 5.49661 2.90918 5.3981 2.90918 5.26784Z" fill="black"/>
</svg>
