<svg width="16" height="16" viewBox="0 0 16 16" fill="none" xmlns="http://www.w3.org/2000/svg">
<path d="M2 4.74439C2 4.00274 2.54228 3.37428 3.27924 3.29101C4.43238 3.16071 6.21619 3 8 3C9.78381 3 11.5676 3.16071 12.7208 3.29101C13.4577 3.37428 14 4.00274 14 4.74439V11.2556C14 11.9973 13.4577 12.6257 12.7208 12.709C11.5676 12.8393 9.78381 13 8 13C6.21619 13 4.43238 12.8393 3.27924 12.709C2.54228 12.6257 2 11.9973 2 11.2556V4.74439Z" stroke="#003784" stroke-linecap="round" stroke-linejoin="round"/>
<path d="M13.0469 3.375C12.4945 3.18843 9.82812 3 8 3C6.30177 3 4.41427 3.16365 3.24935 3.29457C3.08071 3.31352 2.91672 3.36116 2.77378 3.45263C2.65309 3.52986 2.50771 3.6335 2.38666 3.74785C2.13231 3.9881 2.29275 4.33009 2.56353 4.55166L6.73388 7.96401C7.47045 8.5667 8.52969 8.56687 9.26645 7.96442L13.4495 4.54388C13.7979 4.25899 13.8581 3.87082 13.4821 3.62361C13.2927 3.49915 13.1094 3.39613 13.0469 3.375Z" fill="#003784" fill-opacity="0.25" stroke="#003784" stroke-linecap="round" stroke-linejoin="round"/>
</svg>
