<svg width="16" height="16" viewBox="0 0 16 16" fill="none" xmlns="http://www.w3.org/2000/svg">
<path d="M13.5 8V4.74439C13.5 4.00274 12.9577 3.37428 12.2208 3.29101C11.0676 3.16071 9.28381 3 7.5 3C5.71619 3 3.93238 3.16071 2.77924 3.29101C2.04228 3.37428 1.5 4.00274 1.5 4.74439V11.2556C1.5 11.9973 2.04228 12.6257 2.77924 12.709C3.93238 12.8393 5.71619 13 7.5 13C7.9745 13 8.44899 12.9886 8.91162 12.9695" stroke="#003784" stroke-linecap="round" stroke-linejoin="round"/>
<path d="M13.4116 11V14.5" stroke="#003784" stroke-linecap="round" stroke-linejoin="round"/>
<path d="M15.1616 12.75L11.6616 12.75" stroke="#003784" stroke-linecap="round" stroke-linejoin="round"/>
<path d="M12.4068 3.375C11.8545 3.18843 9.18808 3 7.35996 3C5.66173 3 3.77423 3.16365 2.6093 3.29457C2.44067 3.31352 2.27667 3.36116 2.13373 3.45263C2.01304 3.52986 1.86767 3.6335 1.74661 3.74785C1.49227 3.9881 1.6527 4.33009 1.92349 4.55166L6.09384 7.96401C6.8304 8.5667 7.88965 8.56687 8.6264 7.96442L12.8095 4.54388C13.1579 4.25899 13.2181 3.87082 12.842 3.62361C12.6527 3.49915 12.4694 3.39613 12.4068 3.375Z" fill="#003784" fill-opacity="0.25" stroke="#003784" stroke-linecap="round" stroke-linejoin="round"/>
</svg>
