<svg width="16" height="16" viewBox="0 0 16 16" fill="none" xmlns="http://www.w3.org/2000/svg">
<rect x="6" y="2" width="8" height="10" rx="1" fill="#003784" fill-opacity="0.25" stroke="#003784" stroke-linecap="round" stroke-linejoin="round"/>
<path d="M8.45189 13.6945L5.55412 14.471C5.02065 14.6139 4.47231 14.2974 4.32937 13.7639L2.25882 6.03648C2.11588 5.50302 2.43246 4.95468 2.96593 4.81174L3.93185 4.55292" stroke="#003784" stroke-linecap="round" stroke-linejoin="round"/>
<circle cx="9.90907" cy="4.99568" r="0.932931" stroke="#003784" stroke-linecap="round" stroke-linejoin="round"/>
<path d="M8.01911 9.35127C8.01911 8.26888 8.82669 7.3385 9.90908 7.3385C10.9915 7.3385 11.799 8.26888 11.799 9.35127V9.78417C11.799 9.80412 11.7848 9.82085 11.765 9.82318C11.5879 9.844 10.7485 9.93721 9.90908 9.93721C9.06966 9.93721 8.23025 9.844 8.05317 9.82318C8.03337 9.82085 8.01911 9.80412 8.01911 9.78417V9.35127Z" stroke="#003784" stroke-linecap="round" stroke-linejoin="round"/>
</svg>
