<svg width="16" height="16" viewBox="0 0 16 16" fill="none" xmlns="http://www.w3.org/2000/svg">
<path d="M2.44745 12.4475C2.12567 12.1257 2.06173 11.6272 2.29186 11.2346L6.63315 3.8289C6.96429 3.26401 7.73996 3.1645 8.20296 3.62751L12.0759 7.50048C12.5389 7.96348 12.4394 8.73914 11.8745 9.07028L4.46881 13.4116C4.07623 13.6417 3.57776 13.5778 3.25598 13.256L2.44745 12.4475Z" stroke="black" stroke-linecap="round" stroke-linejoin="round"/>
<path d="M9.53553 10.707L9.71231 10.8838C10.3957 11.5672 10.3957 12.6753 9.71231 13.3587L9.53553 13.5355C8.75449 14.3165 7.48816 14.3165 6.70711 13.5355L6 12.8284" stroke="black" stroke-linecap="round" stroke-linejoin="round"/>
<path d="M11.957 3.70703L12.957 2.70703" stroke="black" stroke-linecap="round" stroke-linejoin="round"/>
<path d="M12.7499 5.20711L14.1641 5.20711" stroke="black" stroke-linecap="round" stroke-linejoin="round"/>
<path d="M10.4571 2.91414L10.4571 1.49992" stroke="black" stroke-linecap="round" stroke-linejoin="round"/>
</svg>
