<svg width="16" height="16" viewBox="0 0 16 16" fill="none" xmlns="http://www.w3.org/2000/svg">
<path d="M2.79566 5.34648C2.79566 4.24191 3.69175 3.34886 4.79447 3.28506C5.71423 3.23184 6.59712 3.16333 8.23235 3.16333C9.96834 3.16333 10.9226 3.24054 12.0012 3.2947C13.1044 3.35009 14.0005 4.24191 14.0005 5.34648V9.60515C14.0005 10.7097 13.1051 11.6051 12.0005 11.6051H8.73895C8.42048 11.6051 8.12106 11.7568 7.93268 12.0136L6.36241 14.1539C6.24808 14.3097 6.00115 14.2289 6.00115 14.0356V11.8051C6.00115 11.6947 5.91161 11.6051 5.80115 11.6051H4.79566C3.69109 11.6051 2.79566 10.7097 2.79566 9.60515V5.34648Z" fill="#003784" fill-opacity="0.25" stroke="#003784" stroke-linecap="round" stroke-linejoin="round"/>
</svg>
