<svg width="16" height="16" viewBox="0 0 16 16" fill="none" xmlns="http://www.w3.org/2000/svg">
<path d="M3 1.2C3 1.08954 3.08954 1 3.2 1H12.8C12.9105 1 13 1.08954 13 1.2V14.8C13 14.9105 12.9105 15 12.8 15H3.2C3.08954 15 3 14.9105 3 14.8V1.2Z" fill="black" stroke="black"/>
<ellipse cx="0.5" cy="-0.5" rx="0.5" ry="-0.5" transform="matrix(-4.37114e-08 1 1 4.37114e-08 10.5 3.5)" stroke="white" stroke-linecap="round" stroke-linejoin="round"/>
<ellipse cx="0.5" cy="-0.5" rx="0.5" ry="-0.5" transform="matrix(-4.37114e-08 1 1 4.37114e-08 10.5 6.5)" stroke="white" stroke-linecap="round" stroke-linejoin="round"/>
<ellipse cx="0.5" cy="-0.5" rx="0.5" ry="-0.5" transform="matrix(-4.37114e-08 1 1 4.37114e-08 10.5 9.5)" stroke="white" stroke-linecap="round" stroke-linejoin="round"/>
<ellipse cx="0.5" cy="-0.5" rx="0.5" ry="-0.5" transform="matrix(-4.37114e-08 1 1 4.37114e-08 6.5 3.5)" stroke="white" stroke-linecap="round" stroke-linejoin="round"/>
<ellipse cx="0.5" cy="-0.5" rx="0.5" ry="-0.5" transform="matrix(-4.37114e-08 1 1 4.37114e-08 6.5 6.5)" stroke="white" stroke-linecap="round" stroke-linejoin="round"/>
<ellipse cx="0.5" cy="-0.5" rx="0.5" ry="-0.5" transform="matrix(-4.37114e-08 1 1 4.37114e-08 6.5 9.5)" stroke="white" stroke-linecap="round" stroke-linejoin="round"/>
<rect x="7.5" y="11.5" width="1" height="2.5" stroke="white" stroke-linecap="round" stroke-linejoin="round"/>
</svg>
