<svg width="16" height="16" viewBox="0 0 16 16" fill="none" xmlns="http://www.w3.org/2000/svg">
<path d="M2.82478 3.82341C2.89314 3.34499 3.30584 3 3.78912 3H5.21088C5.69417 3 6.10686 3.34499 6.17522 3.82341C6.30956 4.76364 6.5 6.38182 6.5 8C6.5 9.61818 6.30956 11.2364 6.17522 12.1766C6.10686 12.655 5.69416 13 5.21088 13H3.78912C3.30584 13 2.89314 12.655 2.82478 12.1766C2.69044 11.2364 2.5 9.61818 2.5 8C2.5 6.38182 2.69044 4.76364 2.82478 3.82341Z" stroke="black" stroke-linecap="round" stroke-linejoin="round"/>
<path d="M9.82478 3.82341C9.89314 3.34499 10.3058 3 10.7891 3H12.2109C12.6942 3 13.1069 3.34499 13.1752 3.82341C13.3096 4.76364 13.5 6.38182 13.5 8C13.5 9.61818 13.3096 11.2364 13.1752 12.1766C13.1069 12.655 12.6942 13 12.2109 13H10.7891C10.3058 13 9.89314 12.655 9.82478 12.1766C9.69044 11.2364 9.5 9.61818 9.5 8C9.5 6.38182 9.69044 4.76364 9.82478 3.82341Z" stroke="black" stroke-linecap="round" stroke-linejoin="round"/>
</svg>
