<svg width="16" height="16" viewBox="0 0 16 16" fill="none" xmlns="http://www.w3.org/2000/svg">
<path d="M6.72934 2.35433L7.64644 1.4371C7.8417 1.24181 8.1583 1.2418 8.35358 1.43707L9.27083 2.35433" stroke="black" stroke-linecap="round" stroke-linejoin="round"/>
<path d="M7.9998 1.75V4.25" stroke="black" stroke-linecap="round" stroke-linejoin="round"/>
<path d="M9.27066 13.8957L8.35356 14.8129C8.1583 15.0082 7.8417 15.0082 7.64642 14.8129L6.72917 13.8957" stroke="black" stroke-linecap="round" stroke-linejoin="round"/>
<path d="M8.0002 14.5V12" stroke="black" stroke-linecap="round" stroke-linejoin="round"/>
<path d="M13.6456 6.72937L14.5629 7.64647C14.7581 7.84173 14.7582 8.15833 14.5629 8.35361L13.6456 9.27086" stroke="black" stroke-linecap="round" stroke-linejoin="round"/>
<path d="M14.2498 7.99976L11.7498 7.99976" stroke="black" stroke-linecap="round" stroke-linejoin="round"/>
<path d="M2.10404 9.27063L1.18681 8.35353C0.991524 8.15827 0.991512 7.84167 1.18678 7.64639L2.10404 6.72914" stroke="black" stroke-linecap="round" stroke-linejoin="round"/>
<path d="M1.49983 8.00024L3.99983 8.00024" stroke="black" stroke-linecap="round" stroke-linejoin="round"/>
<path d="M11.0936 3.10939L12.3906 3.1093C12.6668 3.10929 12.8907 3.33315 12.8907 3.6093L12.8907 4.9065" stroke="black" stroke-linecap="round" stroke-linejoin="round"/>
<path d="M12.4192 3.58032L10.6514 5.34809" stroke="black" stroke-linecap="round" stroke-linejoin="round"/>
<path d="M4.72941 13.0674L3.43234 13.0675C3.15619 13.0675 2.93231 12.8436 2.93231 12.5675L2.93231 11.2703" stroke="black" stroke-linecap="round" stroke-linejoin="round"/>
<path d="M3.40382 12.5964L5.17159 10.8287" stroke="black" stroke-linecap="round" stroke-linejoin="round"/>
<path d="M12.8905 11.0937L12.8906 12.3907C12.8907 12.6669 12.6668 12.8908 12.3906 12.8908L11.0934 12.8908" stroke="black" stroke-linecap="round" stroke-linejoin="round"/>
<path d="M12.4194 12.4192L10.6517 10.6514" stroke="black" stroke-linecap="round" stroke-linejoin="round"/>
<path d="M2.93244 4.72958L2.93235 3.43251C2.93233 3.15636 3.15619 2.93248 3.43235 2.93248L4.72954 2.93248" stroke="black" stroke-linecap="round" stroke-linejoin="round"/>
<path d="M3.40353 3.40405L5.1713 5.17182" stroke="black" stroke-linecap="round" stroke-linejoin="round"/>
<circle cx="7.99994" cy="8" r="1.46558" fill="black" stroke="black" stroke-linecap="round" stroke-linejoin="round"/>
</svg>
