<svg width="16" height="16" viewBox="0 0 16 16" fill="none" xmlns="http://www.w3.org/2000/svg">
<path d="M10.8233 2.31209L11.2918 4.06071C11.3633 4.32745 11.205 4.60161 10.9383 4.67309L9.18965 5.14163" stroke="#003784" stroke-linecap="round" stroke-linejoin="round"/>
<path d="M4.94796 13.8486L4.47941 12.0999C4.40794 11.8332 4.56623 11.559 4.83297 11.4876L6.58159 11.019" stroke="#003784" stroke-linecap="round" stroke-linejoin="round"/>
<path d="M6.68016 3.32341C8.32508 2.88266 9.99827 3.31535 11.2073 4.33719M12.8064 6.8604C13.0425 7.74168 13.028 8.63107 12.8064 9.45285M3.14318 9.44964C2.65589 7.63104 3.23623 5.77789 4.5 4.55565M4.73878 11.9699C5.94807 12.9939 7.6229 13.4278 9.26941 12.9866C10.1893 12.7401 10.9802 12.2527 11.5925 11.6104" stroke="#003784" stroke-linecap="round" stroke-linejoin="round"/>
<path d="M14.5 14.5L1.5 1.5" stroke="#003784" stroke-linecap="round"/>
</svg>
