<svg width="16" height="16" viewBox="0 0 16 16" fill="none" xmlns="http://www.w3.org/2000/svg">
<path d="M13.3251 2.29834L3.06451 12.5588" stroke="#003784" stroke-linecap="round" stroke-linejoin="round"/>
<path d="M8.83789 11.1162C8.83792 11.6584 8.92223 11.9958 9.09082 12.1279C9.25964 12.2554 9.62906 12.3399 10.1982 12.3809V12.6338H6.11719V12.3809C6.70936 12.3353 7.07881 12.2373 7.22461 12.0869C7.37035 11.9365 7.44334 11.558 7.44336 10.9521V10.2969L8.83789 8.90234V11.1162ZM12.124 4.20117L11.5391 4.78613C11.4389 4.564 11.3303 4.3994 11.21 4.29395C10.9594 4.06613 10.4281 3.95219 9.61719 3.95215H8.83789V7.48828L7.44336 8.88281V3.95215H6.66406C5.88949 3.95215 5.36072 4.0639 5.07812 4.28711C4.80013 4.51042 4.59049 4.99805 4.44922 5.75H4.10645L4.18945 3.37109H12.0986L12.124 4.20117ZM12.1738 5.75H11.9902L12.168 5.57129L12.1738 5.75Z" fill="#003784"/>
</svg>
