<svg width="16" height="16" viewBox="0 0 16 16" fill="none" xmlns="http://www.w3.org/2000/svg">
<path d="M3.29707 2.71229C3.91204 2.09732 9.44675 3.94223 11.2917 8.24701C10.0617 9.47695 10.0617 9.47694 8.83179 10.7069C4.527 8.86198 2.6821 3.32725 3.29707 2.71229Z" fill="#003784" fill-opacity="0.25"/>
<path d="M3.16533 2.58067C3.19915 2.57631 3.24406 2.57308 3.30136 2.57308C3.49373 2.57308 3.7671 2.60889 4.10929 2.69185C4.78978 2.85687 5.67702 3.19238 6.61662 3.70486C8.41965 4.68834 10.3419 6.28308 11.3827 8.46264L9.04729 10.798C6.86771 9.75721 5.273 7.83502 4.28952 6.03196C3.77703 5.09234 3.44152 4.20513 3.2765 3.52463C3.19354 3.18241 3.15773 2.90908 3.15773 2.71671C3.15773 2.65936 3.16096 2.6145 3.16533 2.58067Z" stroke="#003784"/>
<path d="M14.3283 8.56956L13.0119 8.56956C12.366 8.56956 11.7599 8.25763 11.3845 7.73204L10.2149 6.09469L12.0298 6.35396C12.4582 6.41516 12.8552 6.61365 13.1612 6.91965L14.4697 8.22814C14.5957 8.35413 14.5065 8.56956 14.3283 8.56956Z" stroke="#003784" stroke-linecap="round"/>
<path d="M9.15426 13.7433L9.15426 12.4269C9.15426 11.781 8.84233 11.1749 8.31674 10.7995L6.67939 9.62992L6.93866 11.4448C6.99986 11.8732 7.19835 12.2702 7.50435 12.5762L8.81284 13.8847C8.93884 14.0107 9.15426 13.9215 9.15426 13.7433Z" stroke="#003784" stroke-linecap="round"/>
<path d="M13.397 12.8122C13.4111 12.7695 12.9235 11.7631 12.4299 10.8173C12.2106 10.397 11.6491 10.3174 11.3138 10.6527C10.9569 11.0096 11.0673 11.6274 11.5165 11.8579C12.3899 12.3063 13.3839 12.8517 13.397 12.8122Z" stroke="#003784"/>
</svg>
