<svg width="16" height="16" viewBox="0 0 16 16" fill="none" xmlns="http://www.w3.org/2000/svg">
<circle cx="7" cy="5.82275" r="1.32275" stroke="#003784" stroke-linecap="round" stroke-linejoin="round"/>
<mask id="mask0_23_1066" style="mask-type:alpha" maskUnits="userSpaceOnUse" x="2" y="2" width="10" height="10">
<path d="M12 7C12 8.38071 11.4404 9.63071 10.5355 10.5355C9.63071 11.4404 8.38071 12 7 12C4.23858 12 2 9.76142 2 7C2 4.23858 4.23858 2 7 2C9.76142 2 12 4.23858 12 7Z" fill="#D9D9D9"/>
</mask>
<g mask="url(#mask0_23_1066)">
<path d="M4.32031 11.9983C4.32031 10.4637 5.46533 9.14453 7 9.14453C8.53467 9.14453 9.67969 10.4637 9.67969 11.9983V12.6121C9.67969 12.6404 9.65948 12.6641 9.63139 12.6674C9.38033 12.697 8.19017 12.8291 7 12.8291C5.80983 12.8291 4.61967 12.697 4.36861 12.6674C4.34052 12.6641 4.32031 12.6404 4.32031 12.6121V11.9983Z" stroke="#003784" stroke-linecap="round" stroke-linejoin="round"/>
</g>
<path d="M14 14L10.5355 10.5355M10.5355 10.5355C11.4404 9.63071 12 8.38071 12 7C12 4.23858 9.76142 2 7 2C4.23858 2 2 4.23858 2 7C2 9.76142 4.23858 12 7 12C8.38071 12 9.63071 11.4404 10.5355 10.5355Z" stroke="#003784" stroke-linecap="round" stroke-linejoin="round"/>
</svg>
