<svg width="16" height="16" viewBox="0 0 16 16" fill="none" xmlns="http://www.w3.org/2000/svg">
<path d="M2.00085 4.20493C1.99993 4.09447 2.08958 4.00028 2.19999 3.99708C4.79323 3.92191 7.33661 2.41732 7.88954 2.07076C7.95795 2.02788 8.04205 2.02788 8.11046 2.07076C8.66339 2.41732 11.2068 3.92191 13.8 3.99708C13.9104 4.00028 14.0001 4.09448 13.9992 4.20493C13.9177 14 8 14 8 14C8 14 2.08225 14 2.00085 4.20493Z" stroke="#003784" stroke-linecap="round"/>
<path d="M7.88966 2.07062C7.95798 2.02789 8.04203 2.02789 8.11036 2.07062C8.66327 2.41717 11.2066 3.92213 13.7998 3.99738C13.9102 4.00058 13.9999 4.09494 13.999 4.20539C13.9175 14.0001 8.00001 14.0003 8.00001 14.0003C7.9927 14.0003 2.0825 13.994 2.00098 4.20539C2.00007 4.09494 2.08979 4.00058 2.2002 3.99738C4.79338 3.92214 7.33674 2.41717 7.88966 2.07062ZM8.00001 10.8753C6.00001 10.8753 5.50001 12.5003 5.50001 13.0003C5.51401 13.0088 6.95361 13.8753 8.00001 13.8753C9.04616 13.8753 10.4853 13.0092 10.5 13.0003C10.5 12.5003 10 10.8753 8.00001 10.8753ZM8.00001 6.00031C7.26947 6.00032 6.67774 6.59302 6.67774 7.32355C6.67814 8.05375 7.26972 8.64582 8.00001 8.64582C8.7303 8.64582 9.32285 8.05375 9.32325 7.32355C9.32325 6.59302 8.73054 6.00031 8.00001 6.00031Z" fill="#003784" fill-opacity="0.25"/>
<circle cx="8" cy="7.32275" r="1.32275" stroke="#003784" stroke-linecap="round" stroke-linejoin="round"/>
<path d="M10.5 13C10.5 12.5 10 10.8745 8 10.8745C6 10.8745 5.5 12.5 5.5 13" stroke="#003784" stroke-linecap="round" stroke-linejoin="round"/>
</svg>
