<svg width="16" height="16" viewBox="0 0 16 16" fill="none" xmlns="http://www.w3.org/2000/svg">
<path d="M12.04 11.6396C10.2894 13.9989 8.00001 14 8.00001 14C7.99263 14 2.0824 13.9939 2.00098 4.20508C2.00007 4.09462 2.08979 4.00027 2.2002 3.99707C2.85064 3.9782 3.4978 3.86883 4.11134 3.71094L12.04 11.6396Z" fill="black"/>
<path d="M11.8644 11.8434C10.1404 13.974 8 13.974 8 13.974C8 13.974 2.08225 13.974 2.00085 4.17891C1.99993 4.06845 2.08956 3.97426 2.19997 3.97106C2.71353 3.95617 3.22513 3.88523 3.7197 3.77832" stroke="black" stroke-linecap="round"/>
<path d="M14 14L1 0.999999" stroke="black" stroke-linecap="round"/>
<path d="M13.8003 3.99708C11.2068 3.92189 8.66295 2.41688 8.11038 2.07052C8.04212 2.02774 7.95682 2.0287 7.8885 2.07139C7.64545 2.22324 7.02249 2.59535 6.18185 2.97265C6.05273 3.0306 6.01943 3.20027 6.11925 3.30059L12.7087 9.92286C12.8077 10.0224 12.9756 9.99153 13.0289 9.86166C13.5946 8.48414 13.9796 6.6481 13.9995 4.20035C14.0004 4.0899 13.9107 4.00028 13.8003 3.99708Z" fill="black" stroke="black" stroke-linecap="round"/>
</svg>
