<svg width="16" height="16" viewBox="0 0 16 16" fill="none" xmlns="http://www.w3.org/2000/svg">
<path d="M11.8644 11.8692C10.1404 13.9999 8 13.9999 8 13.9999C8 13.9999 2.08225 13.9999 2.00085 4.20479C1.99993 4.09433 2.08956 4.00014 2.19997 3.99694C2.71353 3.98205 3.22513 3.91111 3.7197 3.8042" stroke="black" stroke-linecap="round"/>
<path d="M14 14L1 0.999999" stroke="black" stroke-linecap="round"/>
<path d="M12.9142 10.1294C13.542 8.72466 13.9782 6.81022 13.9995 4.20035C14.0004 4.0899 13.9107 4.00028 13.8003 3.99708C11.2067 3.92189 8.66294 2.41688 8.11037 2.07052C8.04211 2.02774 7.95681 2.0287 7.88848 2.07139C7.61998 2.23914 6.88785 2.67569 5.91078 3.0911" stroke="black" stroke-linecap="round"/>
</svg>
