<svg width="16" height="16" viewBox="0 0 16 16" fill="none" xmlns="http://www.w3.org/2000/svg">
<path d="M2.00085 4.20493C1.99993 4.09447 2.08958 4.00028 2.19999 3.99708C4.79323 3.92191 7.33661 2.41732 7.88954 2.07076C7.95795 2.02788 8.04205 2.02788 8.11046 2.07076C8.66339 2.41732 11.2068 3.92191 13.8 3.99708C13.9104 4.00028 14.0001 4.09448 13.9992 4.20493C13.9177 14 8 14 8 14C8 14 2.08225 14 2.00085 4.20493Z" stroke="black" stroke-linecap="round"/>
<circle cx="8" cy="7.32275" r="1.32275" stroke="black" stroke-linecap="round" stroke-linejoin="round"/>
<path d="M10.5 13C10.5 12.5 10 10.8745 8 10.8745C6 10.8745 5.5 12.5 5.5 13C5.5 13 6.94848 13.8745 8 13.8745C9.05152 13.8745 10.5 13 10.5 13Z" stroke="black" stroke-linecap="round" stroke-linejoin="round"/>
<path d="M10.5 13C10.5 12.5 10 10.8745 8 10.8745C6 10.8745 5.5 12.5 5.5 13" stroke="black" stroke-linecap="round" stroke-linejoin="round"/>
</svg>
