<svg width="16" height="16" viewBox="0 0 16 16" fill="none" xmlns="http://www.w3.org/2000/svg">
<path d="M8 13.9998V14.4998V14.4998V13.9998ZM12.2531 12.1837C12.4268 11.9691 12.3935 11.6542 12.1789 11.4805C11.9642 11.3068 11.6494 11.34 11.4757 11.5547L11.8644 11.8692L12.2531 12.1837ZM8 13.9998C8 13.4998 8.00038 13.4998 8.00074 13.4998C8.00083 13.4998 8.00117 13.4998 8.00135 13.4998C8.00172 13.4998 8.00199 13.4998 8.00218 13.4998C8.00256 13.4998 8.00259 13.4998 8.00228 13.4998C8.00166 13.4998 7.99967 13.4998 7.99636 13.4997C7.98975 13.4995 7.97786 13.4991 7.96105 13.4982C7.92742 13.4964 7.87421 13.4924 7.80421 13.4842C7.66406 13.4676 7.45761 13.4338 7.20676 13.3647C6.70528 13.2267 6.02948 12.949 5.34844 12.3892C4.00294 11.2833 2.54066 8.99331 2.50083 4.20061L2.00085 4.20477L1.50086 4.20892C1.54244 9.21129 3.07974 11.8189 4.71346 13.1617C5.52204 13.8263 6.33076 14.1608 6.9414 14.3289C7.24661 14.4129 7.50312 14.4555 7.68691 14.4773C7.77888 14.4881 7.85289 14.4938 7.90599 14.4967C7.93255 14.4982 7.9539 14.4989 7.96968 14.4994C7.97757 14.4996 7.98408 14.4997 7.98914 14.4998C7.99168 14.4998 7.99385 14.4998 7.99566 14.4998C7.99657 14.4998 7.99738 14.4998 7.99811 14.4998C7.99847 14.4998 7.99894 14.4998 7.99912 14.4998C7.99957 14.4998 8 14.4998 8 13.9998ZM11.8644 11.8692L11.4757 11.5547C10.6805 12.5374 9.79655 13.0217 9.11849 13.2623C8.77826 13.383 8.48915 13.4425 8.289 13.4718C8.18905 13.4864 8.1117 13.4934 8.06179 13.4968C8.03686 13.4985 8.01883 13.4992 8.00831 13.4996C8.00305 13.4998 7.99968 13.4998 7.99827 13.4998C7.99756 13.4998 7.99735 13.4998 7.99763 13.4998C7.99778 13.4998 7.99804 13.4998 7.99844 13.4998C7.99863 13.4998 7.99886 13.4998 7.99912 13.4998C7.99925 13.4998 7.99947 13.4998 7.99954 13.4998C7.99976 13.4998 8 13.4998 8 13.9998C8 14.4998 8.00025 14.4998 8.00051 14.4998C8.00061 14.4998 8.00088 14.4998 8.00107 14.4998C8.00146 14.4998 8.00189 14.4998 8.00234 14.4998C8.00326 14.4998 8.0043 14.4998 8.00548 14.4998C8.00784 14.4998 8.01072 14.4998 8.01412 14.4997C8.02091 14.4996 8.02977 14.4994 8.04061 14.4991C8.06228 14.4984 8.09192 14.497 8.12888 14.4946C8.20276 14.4896 8.3061 14.48 8.43374 14.4613C8.68878 14.424 9.04252 14.3503 9.45288 14.2047C10.276 13.9127 11.3242 13.3317 12.2531 12.1837L11.8644 11.8692ZM2.19997 3.99692L2.21446 4.49671C2.80698 4.47954 3.39152 4.39283 3.94741 4.26574L3.83597 3.77832L3.72454 3.2909C3.21952 3.40635 2.70079 3.48219 2.18549 3.49713L2.19997 3.99692ZM2.00085 4.20477L2.50083 4.20061C2.50214 4.35868 2.37962 4.49192 2.21446 4.49671L2.19997 3.99692L2.18549 3.49713C1.7995 3.50832 1.49772 3.82995 1.50086 4.20892L2.00085 4.20477Z" fill="black"/>
<path d="M14 14L1 0.999999" stroke="black" stroke-linecap="round"/>
<path d="M12.9142 10.1294C13.542 8.72466 13.9782 6.81022 13.9995 4.20035C14.0004 4.0899 13.9107 4.00028 13.8003 3.99708C11.2067 3.92189 8.66294 2.41688 8.11037 2.07052C8.04211 2.02774 7.95681 2.0287 7.88848 2.07139C7.61998 2.23914 6.88785 2.67569 5.91078 3.0911" stroke="black" stroke-linecap="round"/>
</svg>
