<svg width="16" height="16" viewBox="0 0 16 16" fill="none" xmlns="http://www.w3.org/2000/svg">
<path d="M13.9384 6.70777C12.5484 6.42112 11.4686 5.3319 11.1814 3.94452C11.1699 3.87574 11.1125 3.82983 11.032 3.82983C10.9631 3.82983 10.9057 3.87566 10.8827 3.94452C10.5955 5.33192 9.50417 6.42112 8.12565 6.70777C8.05674 6.7192 8.01074 6.77655 8.01074 6.85684C8.01074 6.92563 8.05666 6.98297 8.12565 7.00592C9.51568 7.29257 10.5955 8.38179 10.8827 9.7577C10.8941 9.82648 10.9516 9.87239 11.032 9.87239C11.1009 9.87239 11.1584 9.82656 11.1814 9.7577C11.4686 8.37031 12.5599 7.29257 13.9384 7.00592C14.0073 6.99449 14.0533 6.93714 14.0533 6.85684C14.0533 6.77655 14.0074 6.7192 13.9384 6.70777Z" stroke="black" stroke-linecap="round" stroke-linejoin="round"/>
<path d="M7.92679 11.0555C6.9038 10.8451 6.1023 10.0454 5.89135 9.01436C5.88083 8.96173 5.8386 8.93018 5.78586 8.93018C5.73311 8.93018 5.69096 8.96173 5.68036 9.01436C5.46946 10.0454 4.66788 10.8451 3.64493 11.0555C3.59218 11.066 3.56055 11.1081 3.56055 11.1607C3.56055 11.2134 3.59218 11.2554 3.64493 11.266C4.66792 11.4764 5.46942 12.2761 5.68036 13.2966C5.69088 13.3492 5.73311 13.3808 5.78586 13.3808C5.8386 13.3808 5.88076 13.3492 5.89135 13.2966C6.10226 12.276 6.90383 11.4764 7.92679 11.266C7.97954 11.2555 8.01117 11.2134 8.01117 11.1607C8.01117 11.1081 7.97954 11.0661 7.92679 11.0555Z" stroke="black" stroke-linecap="round" stroke-linejoin="round"/>
<path d="M4.15666 6.57225C4.17352 6.62263 4.21562 6.65625 4.26611 6.65625C4.31661 6.65625 4.36711 6.62269 4.37556 6.57225C4.55237 5.8249 5.15839 5.22866 5.8992 5.05235C5.94969 5.03554 5.9834 4.99354 5.9834 4.94316C5.9834 4.89279 5.94975 4.84241 5.8992 4.83398C5.14162 4.64924 4.55231 4.06143 4.37556 3.30568C4.36717 3.2553 4.31661 3.22168 4.26611 3.22168C4.21562 3.22168 4.16512 3.25524 4.15666 3.30568C3.97147 4.0614 3.39062 4.64927 2.63303 4.83398C2.58253 4.85079 2.54883 4.89279 2.54883 4.94316C2.54883 4.99354 2.58247 5.04391 2.63303 5.05235C3.37382 5.22866 3.97146 5.8249 4.15666 6.57225Z" stroke="black" stroke-linecap="round" stroke-linejoin="round"/>
</svg>
