<svg width="16" height="16" viewBox="0 0 16 16" fill="none" xmlns="http://www.w3.org/2000/svg">
<g clip-path="url(#clip0_247_1311)">
<path d="M3.14072 9.03461C2.99224 8.88613 2.89427 8.69469 2.86069 8.48742L2.12551 3.94955C1.90726 2.60243 3.0725 1.43719 4.41962 1.65544L8.9575 2.39062C9.16476 2.4242 9.3562 2.52217 9.50468 2.67064L14.1662 7.33212C14.734 7.89996 14.8809 8.74437 14.4087 9.39392C13.9812 9.98191 13.3125 10.7946 12.2886 11.8185C11.2647 12.8424 10.452 13.5112 9.86399 13.9386C9.21444 14.4108 8.37003 14.2639 7.80219 13.6961L3.14072 9.03461Z" fill="#003784" fill-opacity="0.25" stroke="#003784" stroke-linecap="round" stroke-linejoin="round"/>
<circle cx="6.27818" cy="5.80762" r="0.5" transform="rotate(-45 6.27818 5.80762)" fill="#003784" stroke="#003784"/>
</g>
<defs>
<clipPath id="clip0_247_1311">
<rect width="16" height="16" fill="white"/>
</clipPath>
</defs>
</svg>
