<svg width="16" height="16" viewBox="0 0 16 16" fill="none" xmlns="http://www.w3.org/2000/svg">
<g clip-path="url(#clip0_247_1484)">
<path d="M4.76634 8.18251C4.63744 8.05361 4.55239 7.88741 4.52324 7.70747L3.88498 3.76789C3.69551 2.59839 4.70712 1.58677 5.87662 1.77625L9.8162 2.4145C9.99614 2.44365 10.1623 2.52871 10.2912 2.6576L14.3381 6.70449C14.8311 7.19746 14.9586 7.93054 14.5487 8.49444C14.1776 9.00491 13.597 9.71048 12.7081 10.5994C11.8192 11.4882 11.1136 12.0688 10.6032 12.44C10.0393 12.8499 9.3062 12.7224 8.81322 12.2294L4.76634 8.18251Z" fill="black" stroke="black" stroke-linecap="round" stroke-linejoin="round"/>
<path d="M1.88498 5.76804L2.52323 9.70762C2.55239 9.88756 2.63744 10.0538 2.76634 10.1827L6.81322 14.2295C7.30619 14.7225 8.03927 14.8501 8.60318 14.4401" stroke="black" stroke-linecap="round" stroke-linejoin="round"/>
<circle cx="7.49014" cy="5.38086" r="0.434077" transform="rotate(-45 7.49014 5.38086)" fill="white" stroke="white"/>
</g>
<defs>
<clipPath id="clip0_247_1484">
<rect width="16" height="16" fill="white"/>
</clipPath>
</defs>
</svg>
