<svg width="16" height="16" viewBox="0 0 16 16" fill="none" xmlns="http://www.w3.org/2000/svg">
<path d="M3.79033 9.67211L3.82714 9.67211L6.47534 9.67211C6.64082 9.67211 6.75113 9.8009 6.75113 9.94791L6.75113 12.4306C6.75113 13.5524 7.92809 13.6076 8.49815 13.5708C8.66363 13.5524 8.77395 13.4236 8.75561 13.2582C8.59013 10.0399 10.2085 9.01007 11.0544 8.69744C11.3486 8.58699 11.5326 8.31118 11.5326 7.99859L11.5326 3.97117C11.5326 2.49994 10.0613 2.49994 10.0613 2.49994L4.91213 2.49994C4.17659 2.49994 3.44089 3.05167 3.56969 3.56656C3.60651 3.7137 3.56969 3.86083 3.51453 3.9895L3.29389 4.39408C3.20191 4.57803 3.18357 4.78033 3.29389 4.96413C3.38587 5.14809 3.38587 5.36871 3.27555 5.55268L2.98128 6.03079C2.8893 6.15958 2.87096 6.32506 2.90777 6.47218L3.01809 6.96874C3.07325 7.17104 2.99975 7.37332 2.87095 7.52048L2.687 7.70443C2.59503 7.79641 2.53987 7.92507 2.52152 8.05387C2.3191 9.41467 3.60649 9.6353 3.79033 9.67211Z" fill="black" stroke="black" stroke-linecap="round" stroke-linejoin="round"/>
<path d="M12.1621 8.57837L13.403 8.57837C13.7627 8.57837 14.0326 8.29968 14.0326 7.96874L14.0326 3.10963C14.0326 2.76134 13.7448 2.5 13.403 2.5L12.1621 2.5C11.8024 2.5 11.5326 2.77869 11.5326 3.10963L11.5326 7.96874C11.5326 8.29956 11.8203 8.57837 12.1621 8.57837Z" stroke="black" stroke-linecap="round" stroke-linejoin="round"/>
</svg>
