<svg width="16" height="16" viewBox="0 0 16 16" fill="none" xmlns="http://www.w3.org/2000/svg">
<path d="M2.5 8.5C2.5 8.22386 2.72275 8 2.99889 8C3.72367 8 5.28666 8 8 8C10.7133 8 12.2763 8 13.0011 8C13.2773 8 13.5 8.22386 13.5 8.5V12.5585C13.5 13.4193 12.9394 14.159 12.0861 14.2726C11.2067 14.3896 9.87927 14.5 8 14.5C6.12073 14.5 4.79328 14.3896 3.91395 14.2726C3.06061 14.159 2.5 13.4193 2.5 12.5585V8.5Z" fill="#003784" fill-opacity="0.25" stroke="#003784" stroke-linecap="round" stroke-linejoin="round"/>
<path d="M4.51699 2.12722C4.59822 1.72111 5.10994 1.58442 5.3832 1.89577L6.90859 3.63405C7.01696 3.75741 7.17909 3.81907 7.34218 3.80007L9.64101 3.53151C10.0525 3.48329 10.3411 3.92743 10.1293 4.28347L8.94668 6.27077C8.86271 6.41218 8.85345 6.58622 8.92226 6.73562L9.50429 7.99929H3.85195C3.81625 7.87293 3.73428 7.76385 3.61757 7.69851L1.60097 6.56862C1.23952 6.36624 1.26653 5.83717 1.64687 5.67312L3.77285 4.7571C3.9236 4.69197 4.03272 4.55683 4.06484 4.39577L4.51699 2.12722Z" stroke="#003784" stroke-linecap="round" stroke-linejoin="round"/>
<path d="M12.3447 8.00055L13.5459 3.51812C13.6172 3.25148 13.459 2.97725 13.1924 2.90581L10.2949 2.12944C10.0283 2.05802 9.75422 2.21642 9.68263 2.48296L9.39356 3.56011" stroke="#003784" stroke-linecap="round" stroke-linejoin="round"/>
<path d="M6.5 10.5H9.5" stroke="#003784" stroke-linecap="round"/>
</svg>
