<svg width="16" height="16" viewBox="0 0 16 16" fill="none" xmlns="http://www.w3.org/2000/svg">
<path d="M5.40012 14.5H10.5999C11.3883 14.5 12.0421 13.8897 12.0963 13.1032L12.7221 4.0297C12.7232 4.01297 12.7371 4 12.7539 4H3.28125C3.27834 4 3.27603 4.00247 3.27623 4.00537L3.90367 13.1032C3.95791 13.8897 4.61174 14.5 5.40012 14.5Z" fill="#003784" fill-opacity="0.25"/>
<path d="M2.5 4H3.28125M13.5 4H12.7539M3.28125 4H12.7539M3.28125 4C3.27834 4 3.27603 4.00247 3.27623 4.00537L3.90367 13.1032C3.95791 13.8897 4.61174 14.5 5.40012 14.5H10.5999C11.3883 14.5 12.0421 13.8897 12.0963 13.1032L12.7221 4.0297C12.7232 4.01297 12.7371 4 12.7539 4" stroke="#003784" stroke-linecap="round" stroke-linejoin="round"/>
<path d="M10.5 4V3.5C10.5 2.39543 9.60457 1.5 8.5 1.5H7.5C6.39543 1.5 5.5 2.39543 5.5 3.5V4" stroke="#003784" stroke-linecap="round" stroke-linejoin="round"/>
</svg>
