<svg width="16" height="16" viewBox="0 0 16 16" fill="none" xmlns="http://www.w3.org/2000/svg">
<path d="M10.4151 5.33013L9.16509 3.16506C8.47473 1.96933 6.94576 1.55964 5.75002 2.25C4.55429 2.94036 4.1446 4.46933 4.83496 5.66506L5.89436 7.5" stroke="#003784" stroke-linecap="round" stroke-linejoin="round"/>
<path d="M8 7.5C9.3645 7.5 10.7295 7.59456 11.6875 7.68066C12.4394 7.74848 13 8.3846 13 9.13965V12.8604C13 13.6154 12.4394 14.2515 11.6875 14.3193C10.7295 14.4054 9.3645 14.5 8 14.5C6.6355 14.5 5.27052 14.4054 4.3125 14.3193C3.56056 14.2515 3 13.6154 3 12.8604V9.13965C3 8.3846 3.56056 7.74848 4.3125 7.68066C5.27052 7.59456 6.6355 7.5 8 7.5ZM8 10C7.44772 10 7 10.4477 7 11C7 11.5523 7.44772 12 8 12C8.55228 12 9 11.5523 9 11C9 10.4477 8.55228 10 8 10Z" fill="#003784" fill-opacity="0.25"/>
<path d="M8 7C9.38505 7 10.7657 7.09583 11.7314 7.18262C12.7509 7.27424 13.5 8.13533 13.5 9.13965V12.8604C13.5 13.8647 12.7509 14.7258 11.7314 14.8174C10.7657 14.9042 9.38505 15 8 15C6.61495 15 5.23429 14.9042 4.26855 14.8174C3.24909 14.7258 2.5 13.8647 2.5 12.8604V9.13965C2.5 8.13533 3.24908 7.27424 4.26855 7.18262C5.23429 7.09583 6.61495 7 8 7ZM8 8C6.65622 8 5.3077 8.0933 4.35742 8.17871C3.87269 8.22243 3.5 8.63366 3.5 9.13965V12.8604C3.5 13.3663 3.87269 13.7776 4.35742 13.8213C5.3077 13.9067 6.65622 14 8 14C9.34378 14 10.6923 13.9067 11.6426 13.8213C12.1273 13.7776 12.5 13.3663 12.5 12.8604V9.13965C12.5 8.63366 12.1273 8.22243 11.6426 8.17871C10.6923 8.0933 9.34378 8 8 8Z" fill="#003784"/>
<circle cx="8" cy="11" r="1" stroke="#003784" stroke-linecap="round" stroke-linejoin="round"/>
</svg>
