<svg width="16" height="16" viewBox="0 0 16 16" fill="none" xmlns="http://www.w3.org/2000/svg">
<circle cx="5.67676" cy="4.52344" r="1.72656" fill="black" stroke="black" stroke-linecap="round" stroke-linejoin="round"/>
<circle cx="11.2344" cy="4.92725" r="1.32275" fill="black" stroke="black" stroke-linecap="round" stroke-linejoin="round"/>
<path d="M9.25 13.0227C9.25 9.61364 7.89062 8.25 5.625 8.25C3.35938 8.25 2 9.61364 2 13.0227C2 13.0227 2.90625 13.25 5.625 13.25C8.34375 13.25 9.25 13.0227 9.25 13.0227Z" fill="black" stroke="black" stroke-linecap="round" stroke-linejoin="round"/>
<path d="M11.1768 8.25C12.8491 8.2502 13.8525 9.25694 13.8525 11.7734C13.8525 11.7734 13.1836 11.9414 11.1768 11.9414C10.2525 11.9414 9.61158 11.9046 9.18945 11.8662C9.10929 11.145 8.94919 10.5439 8.7168 10.0518C9.09529 8.78605 9.9571 8.25 11.1768 8.25Z" fill="black" stroke="black" stroke-linecap="round" stroke-linejoin="round"/>
</svg>
