<svg width="16" height="16" viewBox="0 0 16 16" fill="none" xmlns="http://www.w3.org/2000/svg">
<circle cx="5.67676" cy="4.52344" r="1.72656" fill="black" stroke="black" stroke-linecap="round" stroke-linejoin="round"/>
<circle cx="11.2344" cy="4.92725" r="1.32275" fill="black" stroke="black" stroke-linecap="round" stroke-linejoin="round"/>
<path d="M13.9141 11.7166V11.1028C13.9141 9.56816 12.769 8.24902 11.2344 8.24902C10.984 8.24902 10.7593 8.26215 10.5593 8.28351C9.69289 8.37604 9.04573 9.00709 8.57854 9.74259C8.56356 9.76616 8.56084 9.7955 8.57122 9.82143L9.03857 10.989C9.24959 11.5162 9.74002 11.8832 10.3072 11.9102C10.6047 11.9243 10.9195 11.9336 11.2344 11.9336C12.4245 11.9336 13.6147 11.8014 13.8658 11.7719C13.8939 11.7686 13.9141 11.7449 13.9141 11.7166Z" fill="black" stroke="black" stroke-linecap="round" stroke-linejoin="round"/>
<path d="M2.08594 12.0742C2.08594 10.0177 3.62032 8.25 5.67685 8.25C7.73337 8.25 9.26776 10.0177 9.26776 12.0742V12.8967C9.26776 12.9346 9.24067 12.9664 9.20304 12.9708C8.8666 13.0104 7.27172 13.1875 5.67685 13.1875C4.08197 13.1875 2.48709 13.0104 2.15066 12.9708C2.11302 12.9664 2.08594 12.9346 2.08594 12.8967V12.0742Z" fill="black" stroke="black" stroke-linecap="round" stroke-linejoin="round"/>
</svg>
