<svg width="16" height="16" viewBox="0 0 16 16" fill="none" xmlns="http://www.w3.org/2000/svg">
<path d="M1.5 5.64068C1.5 4.90463 2.03426 4.27897 2.76576 4.19724C3.62267 4.10149 4.81134 4 6 4C7.18866 4 8.37733 4.10149 9.23424 4.19724C9.96574 4.27897 10.5 4.90463 10.5 5.64068V8V10.3593C10.5 11.0954 9.96574 11.721 9.23424 11.8028C8.37733 11.8985 7.18866 12 6 12C4.81134 12 3.62267 11.8985 2.76576 11.8028C2.03426 11.721 1.5 11.0954 1.5 10.3593V5.64068Z" stroke="black" stroke-linecap="round" stroke-linejoin="round"/>
<path d="M14.4824 10.1856V5.79843C14.4824 5.65613 14.338 5.55935 14.2064 5.61344L10.624 7.08577C10.549 7.11659 10.5 7.18966 10.5 7.27075V8.50949C10.5 8.58712 10.5449 8.65774 10.6152 8.69064L14.1977 10.3668C14.3303 10.4288 14.4824 10.332 14.4824 10.1856Z" stroke="black" stroke-linecap="round" stroke-linejoin="round"/>
</svg>
