<svg width="16" height="16" viewBox="0 0 16 16" fill="none" xmlns="http://www.w3.org/2000/svg">
<path d="M5.75 10.5L7.5547 12.3047C7.90686 12.6569 8.54843 12.3259 8.48716 11.8317C8.36659 10.859 8.25 9.52432 8.25 8L5.75 10.5Z" fill="#003784" fill-opacity="0.25"/>
<path d="M8.43639 4.60381C8.45299 4.45198 8.46999 4.30693 8.48706 4.16914C8.54831 3.67489 7.90686 3.34314 7.5547 3.6953L6.33579 4.91421C5.96071 5.28929 5.45201 5.5 4.92157 5.5H3.16676C2.90004 5.5 2.64817 5.61521 2.55016 5.86327C2.41091 6.21571 2.25 6.86789 2.25 8C2.25 9.20317 2.43174 9.86428 2.57609 10.1996C2.66438 10.4047 2.87562 10.5 3.09893 10.5M5.75 10.5L7.5547 12.3047C7.90686 12.6569 8.54843 12.3259 8.48716 11.8317C8.36659 10.859 8.25 9.52432 8.25 8L5.75 10.5Z" stroke="#003784" stroke-linecap="round" stroke-linejoin="round"/>
<path d="M11.75 12.4721C11.8271 12.403 11.9025 12.332 11.9759 12.2591C13.0715 11.1721 13.75 9.66518 13.75 7.99984C13.75 6.47965 13.1846 5.0915 12.2527 4.03418" stroke="#003784" stroke-linecap="round" stroke-linejoin="round"/>
<path d="M10.5737 10.8335C11.3004 10.1093 11.75 9.10731 11.75 8.00033C11.75 7.00843 11.389 6.10086 10.7912 5.40186" stroke="#003784" stroke-linecap="round" stroke-linejoin="round"/>
<path d="M13.6667 2.5L2.5 13.67" stroke="#003784" stroke-linecap="round" stroke-linejoin="round"/>
</svg>
