<svg width="16" height="16" viewBox="0 0 16 16" fill="none" xmlns="http://www.w3.org/2000/svg">
<path d="M10.7324 10.7323L7.54589 14.3758C7.40773 14.5337 7.15063 14.3996 7.20117 14.1961L8.43749 9.24701C8.46872 9.12094 8.37312 8.99897 8.24316 8.99897H2.44042C2.26894 8.99869 2.17731 8.79715 2.29003 8.66792L5.26562 5.26562L10.7324 10.7323Z" fill="#003784" fill-opacity="0.25"/>
<path d="M14.5 14.5L1.5 1.5" stroke="#003784" stroke-linecap="round"/>
<path d="M11.8933 9.13281L13.4696 7.3315C13.5825 7.20225 13.4908 6.99969 13.3192 6.99946H10.4175L9.8 7M7.79529 4.85633L8.55844 1.80318C8.60918 1.59962 8.35291 1.46565 8.21469 1.62349L6.5 3.5829" stroke="#003784" stroke-linecap="round"/>
<path d="M10.5116 10.7124L7.30551 14.3764C7.16734 14.5343 6.91025 14.4002 6.96078 14.1968L8.19751 9.24798C8.22905 9.12176 8.13358 8.99949 8.00348 8.99949H2.20004C2.02855 8.99921 1.93692 8.79768 2.04965 8.66844L5.14155 5.13525" stroke="#003784"/>
</svg>
