<svg width="16" height="16" viewBox="0 0 16 16" fill="none" xmlns="http://www.w3.org/2000/svg">
<path d="M10.7324 10.7323L7.54589 14.3758C7.40773 14.5337 7.15063 14.3996 7.20117 14.1961L8.43749 9.24701C8.46872 9.12094 8.37312 8.99897 8.24316 8.99897H2.44042C2.26894 8.99869 2.17731 8.79715 2.29003 8.66792L5.26562 5.26562L10.7324 10.7323Z" fill="#003784" fill-opacity="0.25"/>
<path d="M8.21469 1.62349L7.83854 1.29407L7.83842 1.29421L8.21469 1.62349ZM8.55844 1.80318L9.04351 1.92442L9.04359 1.92412L8.55844 1.80318ZM13.3192 6.99946L13.3198 6.49946H13.3192V6.99946ZM13.4696 7.3315L13.8458 7.66076L13.8461 7.66048L13.4696 7.3315ZM7.30551 14.3764L6.92922 14.0472V14.0472L7.30551 14.3764ZM6.96078 14.1967L6.4757 14.0755L6.47552 14.0762L6.96078 14.1967ZM2.20004 8.99946L2.19922 9.49946H2.20004V8.99946ZM2.04965 8.66841L1.67338 8.33913L1.67284 8.33975L2.04965 8.66841ZM8.19751 9.24795L8.68259 9.36918V9.36918L8.19751 9.24795ZM10.4175 6.99946V6.49946H10.417L10.4175 6.99946ZM11.517 8.80355C11.3352 9.01136 11.3562 9.32724 11.564 9.50909C11.7719 9.69094 12.0877 9.66989 12.2696 9.46208L11.8933 9.13281L11.517 8.80355ZM9.79957 6.5C9.52342 6.50024 9.29976 6.72429 9.3 7.00043C9.30024 7.27658 9.52429 7.50024 9.80043 7.5L9.8 7L9.79957 6.5ZM7.31021 4.73509C7.24325 5.00299 7.40614 5.27445 7.67404 5.34141C7.94194 5.40837 8.2134 5.24548 8.28037 4.97758L7.79529 4.85633L7.31021 4.73509ZM6.12373 3.25362C5.94188 3.46143 5.96292 3.77731 6.17073 3.95916C6.37853 4.14102 6.69442 4.11998 6.87627 3.91217L6.5 3.5829L6.12373 3.25362ZM5.51782 5.4645C5.69967 5.25669 5.67863 4.94081 5.47082 4.75896C5.26302 4.5771 4.94713 4.59815 4.76528 4.80595L5.14155 5.13523L5.51782 5.4645ZM8.21469 1.62349L8.59083 1.95291C8.38367 2.18944 7.99707 1.98797 8.07328 1.68223L8.55844 1.80318L9.04359 1.92412C9.22129 1.21128 8.32216 0.741868 7.83855 1.29407L8.21469 1.62349ZM13.3192 6.99946L13.3185 7.49946C13.0604 7.49912 12.9241 7.19591 13.093 7.00251L13.4696 7.3315L13.8461 7.66048C14.2409 7.20859 13.9212 6.50027 13.3198 6.49946L13.3192 6.99946ZM10.5116 10.7124L10.1353 10.3831L6.92922 14.0472L7.30551 14.3764L7.68179 14.7057L10.8878 11.0416L10.5116 10.7124ZM7.30551 14.3764L6.92922 14.0472C7.13549 13.8114 7.52224 14.0104 7.44604 14.3172L6.96078 14.1967L6.47552 14.0762C6.29825 14.79 7.19919 15.2572 7.68179 14.7057L7.30551 14.3764ZM6.96078 14.1967L7.44586 14.318L8.68259 9.36918L8.19751 9.24795L7.71243 9.12673L6.4757 14.0755L6.96078 14.1967ZM8.00348 8.99946V8.49946H2.20004V8.99946V9.49946H8.00348V8.99946ZM2.20004 8.99946L2.20085 8.49946C2.45728 8.49988 2.59619 8.80246 2.42645 8.99707L2.04965 8.66841L1.67284 8.33975C1.27765 8.79284 1.59981 9.49849 2.19922 9.49946L2.20004 8.99946ZM8.19751 9.24795L8.68259 9.36918C8.793 8.92739 8.45885 8.49946 8.00348 8.49946V8.99946V9.49946C7.80832 9.49946 7.66511 9.31607 7.71243 9.12673L8.19751 9.24795ZM10.4175 6.99946V7.49946H13.3192V6.99946V6.49946H10.4175V6.99946ZM13.4696 7.3315L13.0933 7.00223L11.517 8.80355L11.8933 9.13281L12.2696 9.46208L13.8458 7.66076L13.4696 7.3315ZM9.8 7L9.80043 7.5L10.4179 7.49946L10.4175 6.99946L10.417 6.49946L9.79957 6.5L9.8 7ZM8.55844 1.80318L8.07336 1.68193L7.31021 4.73509L7.79529 4.85633L8.28037 4.97758L9.04351 1.92442L8.55844 1.80318ZM6.5 3.5829L6.87627 3.91217L8.59095 1.95276L8.21469 1.62349L7.83842 1.29421L6.12373 3.25362L6.5 3.5829ZM2.04965 8.66841L2.42592 8.99768L5.51782 5.4645L5.14155 5.13523L4.76528 4.80595L1.67338 8.33914L2.04965 8.66841Z" fill="#003784"/>
<path d="M14.5 14.5L1.5 1.5" stroke="#003784" stroke-linecap="round"/>
</svg>
