<svg width="16" height="16" viewBox="0 0 16 16" fill="none" xmlns="http://www.w3.org/2000/svg">
<path d="M10.7324 10.7323L7.54589 14.3758C7.40773 14.5337 7.15063 14.3996 7.20117 14.1961L8.43749 9.24701C8.46872 9.12094 8.37312 8.99897 8.24316 8.99897H2.44042C2.26894 8.99869 2.17731 8.79715 2.29003 8.66792L5.26562 5.26562L10.7324 10.7323Z" fill="black"/>
<path d="M8.55844 1.80318C8.60918 1.59962 8.35291 1.46565 8.21469 1.62349L6.62428 3.44087C6.55451 3.52061 6.55902 3.64092 6.63458 3.7152L7.54586 4.61111C7.65618 4.71957 7.84259 4.66708 7.88011 4.51699L8.55844 1.80318Z" fill="black"/>
<path d="M13.4696 7.3315C13.5825 7.20225 13.4908 6.99969 13.3192 6.99946H10.4175L10.276 6.99959C10.0988 6.99974 10.0093 7.21322 10.1334 7.33968L11.7422 8.97881C11.8237 9.06191 11.9587 9.05804 12.0354 8.97042L13.4696 7.3315Z" fill="black"/>
<path d="M7.30551 14.3764L10.3907 10.8505C10.459 10.7724 10.4562 10.6549 10.3842 10.5801L5.29266 5.29216C5.21137 5.20774 5.07525 5.21098 4.99808 5.29917L2.04965 8.66841C1.93692 8.79765 2.02855 8.99919 2.20004 8.99946H8.00348C8.13358 8.99946 8.22905 9.12173 8.19751 9.24795L6.96078 14.1967C6.91025 14.4002 7.16734 14.5343 7.30551 14.3764Z" fill="black"/>
<path d="M8.55844 1.80318C8.60918 1.59962 8.35291 1.46565 8.21469 1.62349L6.62428 3.44087C6.55451 3.52061 6.55902 3.64092 6.63458 3.7152L7.54586 4.61111C7.65618 4.71957 7.84259 4.66708 7.88011 4.51699L8.55844 1.80318Z" stroke="black" stroke-linecap="round"/>
<path d="M13.4696 7.3315C13.5825 7.20225 13.4908 6.99969 13.3192 6.99946H10.4175L10.276 6.99959C10.0988 6.99974 10.0093 7.21322 10.1334 7.33968L11.7422 8.97881C11.8237 9.06191 11.9587 9.05804 12.0354 8.97042L13.4696 7.3315Z" stroke="black" stroke-linecap="round"/>
<path d="M7.30551 14.3764L10.3907 10.8505C10.459 10.7724 10.4562 10.6549 10.3842 10.5801L5.29266 5.29216C5.21137 5.20774 5.07525 5.21098 4.99808 5.29917L2.04965 8.66841C1.93692 8.79765 2.02855 8.99919 2.20004 8.99946H8.00348C8.13358 8.99946 8.22905 9.12173 8.19751 9.24795L6.96078 14.1967C6.91025 14.4002 7.16734 14.5343 7.30551 14.3764Z" stroke="black" stroke-linecap="round"/>
<path d="M14.5 14.5L1.5 1.5" stroke="black" stroke-linecap="round"/>
</svg>
