<svg width="16" height="16" viewBox="0 0 16 16" fill="none" xmlns="http://www.w3.org/2000/svg">
<rect width="16" height="16" fill="white"/>
<path d="M8.45489 1.62349C8.59312 1.46565 8.84938 1.59962 8.79864 1.80318L7.56192 6.75097C7.53037 6.87719 7.62584 6.99946 7.75595 6.99946H13.5594C13.731 6.99969 13.8227 7.20225 13.7098 7.3315L7.54571 14.3764C7.40754 14.5343 7.15045 14.4002 7.20098 14.1967L8.43771 9.24795C8.46926 9.12173 8.37379 8.99946 8.24368 8.99946H2.44024C2.26875 8.99919 2.17713 8.79765 2.28985 8.66841L8.45489 1.62349Z" fill="#003784" fill-opacity="0.25"/>
<path d="M8.45489 1.62349L8.07875 1.29407L8.07862 1.29421L8.45489 1.62349ZM8.79864 1.80318L9.28372 1.92442L9.28379 1.92412L8.79864 1.80318ZM13.5594 6.99946L13.5601 6.49946H13.5594V6.99946ZM13.7098 7.3315L14.0861 7.66074L14.0863 7.66048L13.7098 7.3315ZM7.54571 14.3764L7.922 14.7057L7.922 14.7057L7.54571 14.3764ZM7.20098 14.1967L6.7159 14.0755L6.71572 14.0762L7.20098 14.1967ZM2.44024 8.99946L2.43943 9.49946H2.44024V8.99946ZM2.28985 8.66841L1.91358 8.33913L1.91304 8.33975L2.28985 8.66841ZM8.43771 9.24795L8.92279 9.36918V9.36918L8.43771 9.24795ZM7.56192 6.75097L8.047 6.87221L7.56192 6.75097ZM8.45489 1.62349L8.83103 1.95291C8.62388 2.18944 8.23727 1.98797 8.31349 1.68223L8.79864 1.80318L9.28379 1.92412C9.46149 1.21128 8.56236 0.741868 8.07875 1.29407L8.45489 1.62349ZM8.79864 1.80318L8.31356 1.68193L7.07685 6.62972L7.56192 6.75097L8.047 6.87221L9.28372 1.92442L8.79864 1.80318ZM7.75595 6.99946V7.49946H13.5594V6.99946V6.49946H7.75595V6.99946ZM13.5594 6.99946L13.5587 7.49946C13.3006 7.49912 13.1643 7.19591 13.3332 7.00251L13.7098 7.3315L14.0863 7.66048C14.4811 7.20859 14.1614 6.50027 13.5601 6.49946L13.5594 6.99946ZM13.7098 7.3315L13.3335 7.00225L7.16941 14.0472L7.54571 14.3764L7.922 14.7057L14.0861 7.66074L13.7098 7.3315ZM7.54571 14.3764L7.16942 14.0472C7.37569 13.8114 7.76244 14.0104 7.68624 14.3172L7.20098 14.1967L6.71572 14.0762C6.53846 14.79 7.43939 15.2572 7.922 14.7057L7.54571 14.3764ZM7.20098 14.1967L7.68607 14.318L8.92279 9.36918L8.43771 9.24795L7.95263 9.12673L6.7159 14.0755L7.20098 14.1967ZM8.24368 8.99946V8.49946H2.44024V8.99946V9.49946H8.24368V8.99946ZM2.44024 8.99946L2.44105 8.49946C2.69749 8.49988 2.8364 8.80246 2.66666 8.99707L2.28985 8.66841L1.91304 8.33975C1.51785 8.79284 1.84002 9.49849 2.43943 9.49946L2.44024 8.99946ZM2.28985 8.66841L2.66612 8.99768L8.83116 1.95276L8.45489 1.62349L8.07862 1.29421L1.91358 8.33914L2.28985 8.66841ZM8.43771 9.24795L8.92279 9.36918C9.0332 8.92739 8.69905 8.49946 8.24368 8.49946V8.99946V9.49946C8.04852 9.49946 7.90531 9.31607 7.95263 9.12673L8.43771 9.24795ZM7.56192 6.75097L7.07685 6.62972C6.96642 7.07152 7.30057 7.49946 7.75595 7.49946V6.99946V6.49946C7.95112 6.49946 8.09433 6.68287 8.047 6.87221L7.56192 6.75097Z" fill="#003784"/>
</svg>
