<svg width="16" height="16" viewBox="0 0 16 16" fill="none" xmlns="http://www.w3.org/2000/svg">
<rect width="16" height="16" fill="white"/>
<path d="M8.45505 1.62354L8.07891 1.29411L8.07878 1.29426L8.45505 1.62354ZM8.7988 1.80322L9.28387 1.92447L9.28395 1.92416L8.7988 1.80322ZM13.5595 6.99951L13.5602 6.49951H13.5595V6.99951ZM13.7099 7.33154L14.0862 7.66079L14.0865 7.66053L13.7099 7.33154ZM7.54587 14.3765L7.92216 14.7057L7.92216 14.7057L7.54587 14.3765ZM7.20114 14.1968L6.71606 14.0756L6.71588 14.0763L7.20114 14.1968ZM2.4404 8.99951L2.43959 9.49951H2.4404V8.99951ZM2.29001 8.66846L1.91374 8.33918L1.9132 8.3398L2.29001 8.66846ZM8.43787 9.248L8.92295 9.36923V9.36923L8.43787 9.248ZM7.56208 6.75101L8.04716 6.87226L7.56208 6.75101ZM8.45505 1.62354L8.83119 1.95296C8.62403 2.18949 8.23743 1.98801 8.31364 1.68228L8.7988 1.80322L9.28395 1.92416C9.46165 1.21133 8.56252 0.741915 8.07891 1.29411L8.45505 1.62354ZM8.7988 1.80322L8.31372 1.68198L7.07701 6.62977L7.56208 6.75101L8.04716 6.87226L9.28387 1.92447L8.7988 1.80322ZM7.75611 6.99951V7.49951H13.5595V6.99951V6.49951H7.75611V6.99951ZM13.5595 6.99951L13.5589 7.49951C13.3007 7.49917 13.1644 7.19596 13.3334 7.00256L13.7099 7.33154L14.0865 7.66053C14.4813 7.20863 14.1615 6.50032 13.5602 6.49951L13.5595 6.99951ZM13.7099 7.33154L13.3336 7.0023L7.16957 14.0472L7.54587 14.3765L7.92216 14.7057L14.0862 7.66079L13.7099 7.33154ZM7.54587 14.3765L7.16958 14.0472C7.37585 13.8115 7.7626 14.0105 7.6864 14.3173L7.20114 14.1968L6.71588 14.0763C6.53861 14.79 7.43955 15.2573 7.92216 14.7057L7.54587 14.3765ZM7.20114 14.1968L7.68622 14.318L8.92295 9.36923L8.43787 9.248L7.95279 9.12678L6.71606 14.0756L7.20114 14.1968ZM8.24384 8.99951V8.49951H2.4404V8.99951V9.49951H8.24384V8.99951ZM2.4404 8.99951L2.44121 8.49951C2.69765 8.49993 2.83656 8.80251 2.66681 8.99712L2.29001 8.66846L1.9132 8.3398C1.51801 8.79288 1.84017 9.49854 2.43959 9.49951L2.4404 8.99951ZM2.29001 8.66846L2.66628 8.99773L8.83132 1.95281L8.45505 1.62354L8.07878 1.29426L1.91374 8.33918L2.29001 8.66846ZM8.43787 9.248L8.92295 9.36923C9.03336 8.92744 8.69921 8.49951 8.24384 8.49951V8.99951V9.49951C8.04868 9.49951 7.90547 9.31611 7.95279 9.12678L8.43787 9.248ZM7.56208 6.75101L7.07701 6.62977C6.96658 7.07156 7.30073 7.49951 7.75611 7.49951V6.99951V6.49951C7.95128 6.49951 8.09448 6.68292 8.04716 6.87226L7.56208 6.75101Z" fill="black"/>
</svg>
